<?xml version="1.0" encoding="UTF-8"?>
<svg id="Layer_1" xmlns="http://www.w3.org/2000/svg" version="1.1" viewBox="0 0 1920 828.3">
  <!-- Generator: Adobe Illustrator 29.5.0, SVG Export Plug-In . SVG Version: 2.1.0 Build 137)  -->
  <defs>
    <style>
      .st0 {
        fill: #012171;
      }

      .st1 {
        fill: #29abe2;
      }

      .st2, .st3 {
        stroke: #fff;
        stroke-miterlimit: 10;
      }

      .st2, .st4 {
        fill: #13e2ac;
      }

      .st3 {
        fill: #fff;
      }

      .st5 {
        fill: #ead181;
      }

      .st6, .st7 {
        font-family: ArialMT, Arial;
      }

      .st6, .st8 {
        font-size: 18px;
      }

      .st9 {
        fill: #20002c;
      }

      .st10 {
        fill: #010025;
      }

      .st11 {
        fill: #1f0c5d;
      }

      .st12 {
        fill: #0889e5;
      }

      .st13 {
        fill: #0e3fba;
      }

      .st14 {
        font-size: 36px;
      }

      .st15 {
        fill: #b58a33;
      }

      .st16 {
        font-family: GillSans-UltraBold, 'Gill Sans Ultra Bold';
        font-size: 48px;
        font-weight: 700;
      }

      .st17 {
        fill: #010e40;
      }

      .st18 {
        text-decoration: underline;
      }
    </style>
  </defs>
  <rect class="st3" y="0" width="1920" height="72.26"/>
  <rect class="st2" x="28.7" y="22.39" width="931.3" height="32.87" rx="16.43" ry="16.43"/>
  <circle class="st2" cx="1823.91" cy="36.13" r="15.65"/>
  <circle class="st2" cx="1772.26" cy="36.13" r="15.65"/>
  <rect class="st2" x="1855.73" y="25.95" width="33.65" height="3.91" rx="1.96" ry="1.96"/>
  <rect class="st2" x="1855.73" y="31.43" width="33.65" height="3.91" rx="1.96" ry="1.96"/>
  <rect class="st2" x="1855.73" y="36.91" width="33.65" height="3.91" rx="1.96" ry="1.96"/>
  <rect class="st2" x="1855.73" y="42.39" width="33.65" height="3.91" rx="1.96" ry="1.96"/>
  <text class="st7" transform="translate(154.42 237.5) scale(1.41 1)"><tspan class="st14"><tspan x="0" y="0" xml:space="preserve">           </tspan></tspan><tspan class="st8"><tspan x="0" y="64.8">Emne: Din konto er midlertidigt låst – handling krævet</tspan></tspan><tspan class="st8"><tspan x="0" y="108">Fra: </tspan><tspan class="st1" x="37" y="108">support@netbank-sikkerhed.dk</tspan></tspan><tspan class="st8"><tspan x="0" y="129.6">Til: </tspan><tspan class="st1" x="29" y="129.6">123@conartist.com</tspan></tspan></text>
  <g id="Generative_Object">
    <path class="st4" d="M216.8,194.79c.95-.12,5.15,2.87,5.72,2.92.61.05,5.04-3.03,5.95-2.92l59.86,33.79-131.28.08,59.75-33.87Z"/>
    <polygon class="st4" points="158.2 154.11 287.19 154.19 222.52 186.85 158.2 154.11"/>
    <polygon class="st4" points="154.53 160.92 215.08 193.74 154.53 228.01 154.53 160.92"/>
    <polygon class="st4" points="290.28 161.08 290.51 227.69 229.96 193.74 290.28 161.08"/>
  </g>
  <text class="st16" transform="translate(321.33 211.72) scale(1.41 1)"><tspan x="0" y="0">NETBANK - VIGTIGT MEDDELELSE!</tspan></text>
  <text class="st6" transform="translate(154.42 483.38) scale(1.41 1)"><tspan x="0" y="0">Kære kunde,</tspan><tspan x="0" y="43.2">Vi har registreret mistænkelig aktivitet på din netbankkonto, og af sikkerhedsmæssige årsager er din adgang midlertidigt blevet begrænset.</tspan><tspan x="0" y="86.4">For at genaktivere din konto bedes du bekræfte dine oplysninger hurtigst muligt via nedenstående link:</tspan><tspan class="st1"><tspan x="0" y="129.6" xml:space="preserve">             </tspan><tspan class="st18" x="65.01" y="129.6">Bekræft din konto nu</tspan></tspan><tspan x="0" y="172.8">Hvis du ikke reagerer inden for 24 timer, forbeholder vi os retten til at suspendere din konto permanent.</tspan><tspan x="0" y="216">Tak for din forståelse.</tspan><tspan x="0" y="259.2">Venlig hilsen,</tspan><tspan x="0" y="280.8">Netbank Sikkerhedsteam</tspan></text>
  <g id="Generative_Object1" data-name="Generative_Object">
    <path d="M180.45,601.75c-.16.18-.67.45-.88.69-.84.98-1.64,2.49-2.22,3.59-.23.44-1.83,3.89-1.64,4.07.37.06.76.17,1.12.23-.3.28-.95,1.64-1.35,1.69l-15.97-1.65-.17-.13,12.98-11.37,8.24,2.4s-.09.42-.12.46Z"/>
    <path d="M203.12,614.42s-.04-.02-.05-.03c.63-.34,1.61-.07.48.36l.36-.35-.58.19.32-.28-.53.11Z"/>
    <g>
      <path class="st5" d="M229.51,607.57l.25-.73-.48.69c-.03-.19-.05-.4-.05-.58.02-.07.13-.16.07-.25-.17.03-.07.2-.07.25-.05.17-.26.51-.05.67-.1,0-.18,0-.28.01.1-.15,0-.29.01-.4.08-.12.13-.21.09-.36-.18.07-.09.26-.09.36-.03.05-.17.28-.26.26.08-.19.07-.36.05-.56,0,0,.1-.08.04-.15-.17,0-.04.15-.04.15-.03.09-.15.62-.28.6l-.04-.64c-.01.06-.06.79-.26.7l.06-.72c-.24.13-.02.64-.39.66l.12-.81c-.21.24-.02.65-.4.82l.16-.85-.4.82c-.1-.03.27-.71.07-.81l-.35.82.14-.91-.39.89c.02-.26.02-.53.05-.79.03-.11.14-.23.09-.36-.18.07-.08.27-.09.36-.08.27-.14.57-.31.82l.12-1.16-.36,1.14s-.03,0-.09,0l.13-.86-.36.79.14-1.15-.4,1.18.07-1.16-.26,1.17s-.04-.03-.05-.03l.06-.96-.31.94s-.03,0-.09,0l.14-1.03c-.13-.04-.24,1.26-.44.89l.18-.98-.41.99.16-1.08-.45,1.14.15-1.23-.34,1.24s-.04-.03-.05-.03l.17-1.13-.35,1.06c-.14-.03-.1-.47-.09-.55.06-.18.18-.36.15-.56-.19.15-.13.38-.15.56-.05.14-.08.54-.3.53.09-.29.05-.6.08-.89.05-.16.15-.32.16-.49-.24.1-.15.35-.16.49-.03.09-.22.89-.32.87l.06-.84c-.2.1-.15.86-.4.82l.17-1.01-.46,1.03c.06-.27.06-.55.09-.83.04-.14.03-.15.04-.27,0-.03.16-.09.08-.19-.14,0-.07.16-.08.19-.05.15-.03.16-.04.27-.08.28-.13.61-.43.81l.23-.95c-.04-.22-.12,0-.14.04-.1.27-.04.62-.3.85.03-.33.13-.55.08-.89,0,0,.1-.08.04-.15-.17,0-.04.14-.04.15-.08.31-.1.7-.37.96l.21-1.4c-.27.26-.14.95-.33,1.19-.03.04-.19.23-.27.08.13-.26.27-.57.16-.85l-.39.97s-.02,0-.09,0c.16-.33.24-.63.23-.98,0-.01.1-.08.04-.15-.17,0-.04.15-.04.15-.12.32-.22.65-.37.96,0,0-.02,0-.09,0l.22-1.1-.47,1.08.22-1.34c-.28.41-.14.96-.56,1.32,0,0-.02,0-.09,0-.25-.37.03-.87.05-1.26-.29.06-.15,1.18-.39,1.12l.18-1.42c-.15-.1-.27,1.42-.43,1.51-.17-.01-.33-.03-.49-.04l.14-1.26-.39,1.24s-.02,0-.09,0c.06-.33.13-.64.13-.98,0-.02.16-.09.08-.19-.22.02-.08.18-.08.19-.04.11-.25.99-.46.91l.35-1.29c-.45.29-.14.88-.51,1.23.04-.27-.01-.64.03-.89,0-.06.23-.21.15-.33-.22.03-.13.27-.15.33-.03.11-.17.91-.32.87.07-.38.08-.78.12-1.16,0-.03.16-.09.08-.19-.14,0-.07.16-.08.19-.16.4-.14.82-.32,1.22,0,0-.02,0-.09,0l.18-1.3-.43,1.28.1-.99-.35.97s-.02,0-.09,0c.13-.23.06-.49.09-.71.05-.18.06-.17.07-.37.02-.07.13-.16.07-.25-.17.03-.06.2-.07.25-.05.17-.05.21-.07.37-.06.23-.17.46-.24.68,0,0-.02,0-.09,0l.14-1.03-.39,1.01c0-.28.06-.56.06-.84.03-.11,0-.1.01-.17,0-.02.1-.08.04-.15-.17,0-.04.14-.04.15,0,.07-.01.1-.01.17-.07.27-.18.56-.31.82l.04-1.06-.33,1.07s-.04-.03-.05-.03c.09-.35.13-.68.12-1.05.02-.07.13-.16.07-.25-.17.03-.07.19-.07.25-.08.33-.13.73-.36,1.02,0-.32.08-.62.09-.94.03-.11,0-.1.01-.17,0-.02.1-.08.04-.15-.17,0-.04.14-.04.15,0,.07-.01.1-.01.17-.08.32-.18.66-.37.96-.02,0-.04-.03-.05-.03l.16-.96c-.26.3-.08.71-.5.95l.19-1.03-.38,1.04s-.04-.03-.05-.03l.2-1c-.16.11-.24.93-.48.89l.15-.88-.44.89.31-1.26c-.04-.22-.12,0-.14.04-.11.36-.1.75-.35,1.09-.03-.29.05-.58.08-.86.03-.09.16-.22.09-.36-.19.06-.08.27-.09.36-.1.32-.2.78-.48,1.01.08-.3.24-.61.29-.92,0-.02.08-.41-.07-.33-.07.26-.06.6-.16.85-.09.22-.42.43-.43.46-.02.05.12.08.14.11.81,1.28,3.41,2.59,4.11,4.1-.04.08.08.55.05.58-.1.12-.42.14-.49.19-.07.06-.08.43-.23.51l.11-.64c-.28.18-.21.64-.41.91-.04.01-.05.09-.14.04.08-.1.2-.8.21-.97-.08.29-.48.76-.29,1.04-.03.03-.08.01-.14.04-.14-.11-.07-.32-.04-.43.06-.11.05-.19.05-.2,0-.03.07-.16.09-.24.07-.17.24-.36.24-.56-.26.13-.18.38-.24.56-.02.06-.07.2-.09.24-.02.07-.04.13-.05.2-.05.11-.17.25-.24.36l.36-1.26c-.42.35-.4,1-.68,1.46-.05-.62.38-1.21.51-1.82-.43.51-.38,1.26-.84,1.72l.62-1.84-.88,1.95.62-2.07c-.17.58-.78,1.43-.78,2.01,0,.13.16.17.16.18.12,1.16.5,1.42-1.15,2.03l.41-.67-.72.67.41-.79c-.25.25-.59.61-.54.95-.09.02-.09,0-.09,0-.23-.18.54-1.05.47-1.08-.27.04-.68,1.16-.83,1.04l.85-1.45-1.16,1.53.66-1.44-.99,1.42.91-1.62-1.15,1.6.99-1.89c-.41.57-.88,1.21-1.1,1.83-.02.05.08.24.08.25-.25.83-.78,1.07-1.86,1.39l.36-.23c-.42-.22-1.1.43-1.61.31.35-.28,1.16-.21,1.36-.57l-2.15.7c.5-.67,1.41-.82,2.07-1.3-.29.24-1.07.33-1.33.5s-.61.83-1.13.76l.79-.57-.94.51c-.2-.26.62-.41.67-.67-.33.03-.79.63-.97.38l.71-.47-.88.38.67-.47-.75.3.48-.46-.65.3.4-.39-.53.19.31-.35c-.58.22-.53.48-.11.84-.35.09-.46-.13-.5-.31l-.36.2.31-.47-.52.26.45-.36-.81.36s-.07-.04-.11-.06l.88-.49-1.07.35,1.03-.55-1.26.51c-.11-.05-.16-.04-.2-.06l1.34-.55c-.44-.1-.82.38-1.25.43l1.03-.58c-.49.11-.98.33-1.34.58-.05-.03-.11-.06-.16-.09l1.28-.61c-.76-.29-.97.03-1.57.27l.89-.54c-.46.02-.75.37-1.16.51-.04-.03-.02-.06-.07-.1.16.01,1.04-.53.78-.52l-.82.44.58-.43c-.27-.06-.52.45-.76.24.29,0,.57-.41.67-.43s1.78.59,1.94.58c.33-.03,1.5-.87,2.07-.87l-.78.14c-.13.05-1.35.72-1.45.6.68-.35,1.31-.74,2.15-.9l-.11-.06c-.33-.02-2.25,1.01-2.36.85l2.38-.95c.12-.13-.22-.03-.24-.02-.21.06-.47.22-.71.27-.02-.19.86-.26.63-.43l-2.32,1.05,2.33-1.21-2.53,1.16,2.22-1.28-2.63,1.16,2.75-1.5-3.15,1.39c.94-.52,2.41-.85,3.02-1.55l-3.18,1.49,2.68-1.36c-1.1.4-2.1,1.05-3.34,1.19,1.08-.43,2.39-.81,3.39-1.4l-3.15,1.18c-.09-.12,1.47-.63,1.67-.71.1-.04.53-.19.47-.29l-2.78.9,2.34-.95-3.21,1.09,2.9-1.21-3.42,1.23c-.13-.13,2.32-.91,2.52-.99.02,0,.54-.2.2-.18l-3.49,1.25s-.03,0-.09,0c-.17-.05.04-.13.09-.15.75-.31,1.67-.6,2.46-.9.3-.09.76-.12.96-.33-.38.02-.66.22-.96.33-.96.27-2.31.89-3.17,1.05l3.48-1.32-3.72,1.18,3.21-1.36-3.87,1.39,3.14-1.22c.12-.1-.18-.06-.2-.06-1.14.19-2.45,1.08-3.65,1.28.98-.55,2.21-.85,3.3-1.28.06-.02.3,0,.28-.13-.18-.04-.22.12-.28.13-1.3.31-2.38.72-3.55,1.22.39-.35,1.2-.62,1.8-.87.24-.08.59-.1.73-.29-.32.02-.5.19-.73.29-.83.26-1.6.55-2.38.86l2.3-1.11-2.89,1.04c.94-.43,1.9-.82,2.88-1.19.03,0,.21,0,.2-.06-.12-.09-.14.04-.2.06-1.21.22-2.13.82-3.21,1.2l2.65-1.3-2.86,1.21c-.18-.02-.09-.07-.03-.13.31-.28,2.73-1.06,2.77-1.17l-.11-.06-3.21,1.36,2.55-1.29-2.67,1.16,2.37-1.25-2.59,1.13,1.92-1.13c-.82.26-1.47.76-2.2,1.14l1.88-1.29-2.12,1.27c.39-.5,1.19-.82,1.71-1.22.09-.07.28-.19.17-.31l-1.96,1.4,1.33-1.17c-.79.24-1.12.87-1.75,1.25.19-.61,1.05-.91,1.42-1.44l-1.72,1.39c.18-.58.88-.92,1.34-1.37l-1.8,1.22,1.53-1.38s-.22.04-.23.04c-.5.37-1.04.92-1.54,1.31-.38-.08,1.38-1.22,1.38-1.41l-1.64,1.32.09-.27,1.13-.99-1.33.97,1.08-1.22c-.44.47-1.07.89-1.22,1.47-.19-.03-.14-.05-.12-.13.06-.36.8-.92.97-1.29l-1.25,1.33,1.14-1.63-1.22,1.47c0-.49.85-1.15.92-1.55,0-.05-.04-.07-.11-.06l-.89,1.48c-.05-.48.55-1,.6-1.47l-.82,1.55c-.04-.6.42-1.13.55-1.7l-.8,1.68.58-1.8-.89,1.68.55-1.7-.81,1.61c-.2-.04.62-1.68.57-1.84l-.83,1.75.49-1.8-.69,1.74.46-1.7c0-.23-.21.09-.22.11-.24.42-.16,1.04-.46,1.46l.33-1.63-.13.07-.46,1.46.38-1.83c-.22.4-.41.97-.47,1.4-.03.2-.09.43.1.62-.19-.07-.38-.14-.57-.21h.36s.32-1.89.32-1.89l-.59,1.77c-.19-.03.26-1.67.29-1.82-.39.49-.29,1.13-.51,1.67-.31-.17.28-1.49.16-1.52-.4.4-.18,1.08-.49,1.53-.09-.62.16-1.23.29-1.82-.21-.06-.4,1.48-.47,1.63-.15-.49,0-1.01.09-1.5.04-.09.17-.2.15-.33-.19.05-.13.22-.15.33-.11.27-.24,1.22-.28,1.27-.07.09-.16-.06-.22.08l-.08-.13.45-1.53-.64,1.51.4-1.73c-.42.42-.26,1.16-.61,1.67l.29-1.59c-.26-.07-.31,1.55-.59,1.65,0,0,0,.04-.09,0l.43-1.71c-.04-.22-.12,0-.14.04-.17.45-.12.95-.33,1.39-.28-.19.28-1.42.18-1.45-.27.05-.32,1.57-.55,1.5-.17-.65.44-1.22.33-1.86-.22.62-.45,1.23-.49,1.88-.19-.07-.37-.14-.57-.21.26-.17.07-.42.13-.63-.3.24-.08-.59-.07-.68.13-.05.01-.14.01-.17,0-.02.1-.08.04-.15-.17,0-.04.14-.04.15,0,.06,0,.11-.01.17l-.43,1.16s0,.03-.09,0l.4-1.65-.56,1.43.3-1.52c-.29.14-.38,1.41-.56,1.43-.04,0-.23-.05-.26-.12-.09-.18.37-1.32.34-1.59-.2-.06-.4,1.46-.43,1.6-.16-.5.08-.99.12-1.48l-.32,1.42c-.32-.4.06-.98.04-1.41l-.35,1.29.1-1.38-.34,1.36c-.11-.36-.03-.74-.01-1.09.04-.17.16-.34.11-.52-.21.13-.1.37-.11.52-.07.31-.18.61-.16.93l-.18.04c.14-.43.09-.89.13-1.33.03-.11.07-.16.08-.31,0-.02.1-.08.04-.15-.17,0-.04.15-.04.15-.08.18-.06.12-.08.31-.1.43-.17.86-.23,1.3-.1-.34-.08-.78-.07-1.12.02-.07.17-.23.09-.36-.17.08-.09.24-.09.36-.09.39-.19.85-.08,1.24-.14-.03-.3-.09-.41-.12-.18-.39.04-.84.02-1.28,0-.01.1-.08.04-.15-.17,0-.04.15-.04.15-.13.35-.15.71-.23,1.07-.11-.19-.08-.51-.08-.72.02-.09,0-.1.01-.17,0-.02.1-.08.04-.15-.17,0-.04.13-.04.15,0,.07-.01.09-.01.17-.04.22-.09.5-.21.7-.03-.33.04-.65,0-.99,0,0,.1-.08.04-.15-.17,0-.04.15-.04.15-.1.32-.06.67-.25.97-.02-.35-.03-.71,0-1.06.02-.1.03-.17.04-.27.01-.06.13-.16.07-.25-.18.03-.06.22-.07.25-.02.12-.03.14-.04.27-.06.33-.17.66-.15,1-.21-.15-.13-.54-.13-.75.02-.09,0-.13.01-.17,0-.06.03-.19.04-.27,0-.06.01-.1.01-.17,0-.02.1-.08.04-.15-.17,0-.04.14-.04.15,0,.06,0,.12-.01.17,0,.08-.03.19-.04.27,0,.06-.01.09-.01.17-.05.26-.11.56-.21.81-.07-.42,0-.85.02-1.28.02-.08,0-.14.01-.17.02-.09.02-.06.01-.17,0,0,.1-.08.04-.15-.17,0-.04.15-.04.15-.03.11,0,.1-.01.17,0,.06,0,.11-.01.17-.07.34-.19.68-.19,1.03-.17.12-.13-.17-.14-.19-.02-.32.13-.69.12-1.01-.27.33-.16.72-.2,1.08l-.11-.3-.21.38c.05-.45.28-.79.24-1.27,0,0,.1-.08.04-.15-.17,0-.04.15-.04.15-.12.41-.19.83-.44,1.21-.04-.33.25-.75.26-1.05,0-.02,0-.23-.12-.13l-.38,1.16c0-.32.19-.64.23-.95,0-.01.04-.34-.1-.23l-.29,1.15c-.08-.53.14-.99.09-1.53,0,0,.1-.08.04-.15-.17,0-.04.15-.04.15-.15.51-.09,1.07-.42,1.55.04-.46.11-.9.12-1.36.01-.08,0-.13.01-.17.01-.08.02-.06.01-.17,0,0,.1-.08.04-.15-.17,0-.04.15-.04.15-.03.11-.01.09-.01.17,0,.04-.01.1-.01.17-.07.37-.16.76-.29,1.12-.01-.1-.06-.23-.07-.33.03-.24.05-.35.06-.61,0-.07,0-.13.01-.17,0-.07.11-.23.05-.32-.2.05-.05.27-.05.32,0,.04-.01.11-.01.17-.03.25-.08.32-.06.61-.03.21-.19.43-.08.66.19-.02.2.07.23.07-.34.34-.38,1.1-.96,1.15-.13-.1-.24-.2-.24-.34,0-.68,1.05-3.47,1.36-4.26.42-1.06.9-2.22,1.71-3.15,4.2,1.12,8.2,1.09,12.4.69,3.7-.35,7.74-1.23,11.36-1.46,2.31-.15,2.99.9,5.15,1.34l19.05,2.88c-.05.71-.62.97-1.51,1.13Z"/>
      <g>
        <g>
          <path class="st15" d="M213.35,615.13c-.42.1-.85.17-1.3.19,0-.01-.1-.19-.08-.25.23-.62.69-1.26,1.1-1.83l-.99,1.89,1.15-1.6-.91,1.62.99-1.42-.66,1.44,1.16-1.53-.85,1.45c.16.11.56-1,.83-1.04.07.03-.69.9-.47,1.08Z"/>
          <path class="st15" d="M224.01,607.36c-.76-.04-1.51-.09-2.27-.13.27-.26.29-.64.37-.96.05.35-.05.56-.08.89.26-.23.2-.59.3-.85.02-.05.09-.26.14-.04l-.23.95c.3-.19.35-.53.43-.81-.03.27-.03.55-.09.83l.46-1.03-.17,1.01c.25.03.2-.72.4-.82l-.06.84c.1.02.29-.78.32-.87-.03.29.01.6-.08.89.21,0,.25-.39.3-.53,0,.07-.05.52.09.55l.35-1.06-.17,1.13Z"/>
          <path class="st15" d="M214.81,606.77c-.42-.01-.98,0-1.37.1-.02-.03-.16-.06-.14-.11.01-.03.34-.24.43-.46.1-.24.09-.59.16-.85.15-.08.07.32.07.33-.05.31-.21.62-.29.92.29-.23.38-.69.48-1.01-.03.28-.11.57-.08.86.25-.33.24-.73.35-1.09.01-.05.1-.26.14-.04l-.31,1.26.44-.89-.15.88c.24.03.32-.78.48-.89l-.2,1Z"/>
          <path class="st15" d="M215.64,612.81c-.19.04-.37.14-.59.13,0-.01-.15-.05-.16-.18,0-.58.6-1.44.78-2.01l-.62,2.07.88-1.95-.62,1.84c.46-.46.4-1.21.84-1.72-.13.61-.56,1.2-.51,1.82Z"/>
          <path class="st15" d="M204.41,615.57c-.17-.11-.4-.26-.56-.38.41-.14.7-.48,1.16-.51l-.89.54c.6-.24.8-.56,1.57-.27l-1.28.61Z"/>
          <path class="st15" d="M228.13,607.6c-.57,0-1.07-.03-1.64-.06.17-.25.22-.55.31-.82-.03.26-.03.53-.05.79l.39-.89-.14.91.35-.82c.2.1-.17.78-.07.81l.4-.82-.16.85c.38-.17.19-.58.4-.82l-.12.81c.37-.02.14-.53.39-.66l-.06.72Z"/>
          <path class="st15" d="M218.83,606.08c0,.34-.07.65-.13.98-.33-.02-.65-.07-.97-.09.18-.4.16-.82.32-1.22-.04.39-.04.78-.12,1.16.15.04.29-.76.32-.87-.04.25.01.62-.03.89.37-.35.06-.94.51-1.23l-.35,1.29c.2.08.41-.8.46-.91Z"/>
          <path class="st15" d="M216.58,612.53c.2-.27.12-.73.41-.91l-.11.64c.15-.09.15-.45.23-.51.06-.05.38-.07.49-.19.03-.04-.09-.5-.05-.58.36.79,0,1.18-.97,1.55Z"/>
          <path class="st15" d="M225.08,607.44c-.28-.01-.56-.05-.83-.06l.45-1.14-.16,1.08.41-.99-.18.98c.19.37.3-.94.44-.89l-.14,1.03Z"/>
          <path class="st15" d="M220.1,607.17c-.19-.01-.39-.03-.58-.04.16-.09.28-1.62.43-1.51l-.18,1.42c.24.06.1-1.07.39-1.12-.02.39-.3.89-.05,1.26Z"/>
          <path class="st15" d="M221.74,607.23c-.17,0-.42,0-.62,0l.39-.97c.11.28-.03.59-.16.85.08.15.24-.04.27-.08.18-.24.06-.93.33-1.19l-.21,1.4Z"/>
          <path class="st15" d="M204.79,615.79c-.07-.04-.15-.08-.22-.12.36-.25.85-.48,1.34-.58l-1.03.58c.43-.05.81-.52,1.25-.43l-1.34.55Z"/>
          <path class="st15" d="M216.19,612.24c-.03.11-.1.33.04.43-.18.08-.4.08-.59.13.28-.46.26-1.11.68-1.46l-.36,1.26c.06-.11.18-.26.24-.36Z"/>
          <path class="st15" d="M226.15,607.53c-.17,0-.33-.04-.49-.04l.4-1.18-.14,1.15.36-.79-.13.86Z"/>
          <path class="st15" d="M228.91,607.23c0,.12.09.26-.01.4-.27.01-.52-.03-.77-.03.2.09.25-.64.26-.7l.04.64c.13.02.25-.51.28-.6.02.2.03.37-.05.56.08.02.22-.21.26-.26Z"/>
          <path class="st15" d="M213.89,614.97c-.15.06-.28.11-.45.15-.05-.34.29-.7.54-.95l-.41.79.72-.67-.41.67Z"/>
          <path class="st15" d="M229.51,607.57c-.14.03-.16.03-.32.05-.21-.17,0-.51.05-.67,0,.19.02.4.05.58l.48-.69-.25.73Z"/>
          <path class="st15" d="M220.54,607.18c-.11,0-.22-.01-.34-.02.42-.36.28-.9.56-1.32l-.22,1.34Z"/>
          <path class="st15" d="M220.78,607.2c-.1,0-.18-.02-.24-.02l.47-1.08-.22,1.1Z"/>
          <path class="st15" d="M217.63,606.98c-.08,0-.16-.02-.24-.02l.43-1.28-.18,1.3Z"/>
          <path class="st15" d="M219.03,607.08c-.1,0-.19-.02-.24-.02l.39-1.24-.14,1.26Z"/>
          <path class="st15" d="M224.26,607.38s-.1.01-.19,0l.34-1.24-.15,1.23Z"/>
          <path class="st15" d="M215.39,606.81c-.11,0-.23-.01-.34-.02.41-.23.24-.65.5-.95l-.16.96Z"/>
          <path class="st15" d="M226.49,607.54c-.11,0-.2-.02-.24-.02l.36-1.14-.12,1.16Z"/>
          <path class="st15" d="M215.98,606.85c-.1,0-.2-.02-.24-.02.23-.29.28-.69.36-1.02.02.37-.02.69-.12,1.05Z"/>
          <path class="st15" d="M216.45,612.57s-.05.05-.08.07c-.2-.28.21-.75.29-1.04,0,.17-.13.87-.21.97Z"/>
          <path class="st15" d="M216.31,606.87s-.16.02-.28.01l.33-1.07-.04,1.06Z"/>
          <path class="st15" d="M215.05,606.8s-.1.01-.19,0l.38-1.04-.19,1.03Z"/>
          <path class="st15" d="M217.38,606.96c-.08,0-.16-.02-.24-.02l.35-.97-.1.99Z"/>
          <path class="st15" d="M216.8,606.92c-.08,0-.16-.02-.24-.02l.39-1.01-.14,1.03Z"/>
          <path class="st15" d="M225.67,607.48s-.1.01-.19,0l.26-1.17-.07,1.16Z"/>
          <path class="st15" d="M225.42,607.46c-.11,0-.19-.02-.24-.02l.31-.94-.06.96Z"/>
          <path class="st15" d="M221.02,607.22c-.11,0-.14-.03-.15-.03.16-.31.26-.64.37-.96.02.36-.06.66-.23.98Z"/>
          <path class="st15" d="M215.73,606.83c-.05,0-.16.02-.28.01.19-.29.29-.64.37-.96,0,.33-.08.62-.09.94Z"/>
          <path class="st15" d="M216.56,606.89c-.1,0-.19-.02-.24-.02.13-.26.24-.55.31-.82,0,.29-.06.56-.06.84Z"/>
          <path class="st15" d="M217.04,606.94c-.11,0-.14-.03-.15-.03.07-.23.18-.46.24-.68-.03.22.04.48-.09.71Z"/>
          <path class="st15" d="M213.09,612.87l-1.25,2.04c-.14-.04.61-1.79.86-1.82-.15.25-.42.56-.35.85l.73-1.07Z"/>
          <path class="st15" d="M212.78,612.52l-1.09,2.13c-.19-.05.89-2.21,1.09-2.13Z"/>
          <path class="st15" d="M215.23,610.53l-.61,1.87c-.21-.6.29-1.33.61-1.87Z"/>
          <path class="st15" d="M214.94,610.47l-.59,1.77c-.16-.61.22-1.26.59-1.77Z"/>
          <path class="st15" d="M212.36,612.34l-.98,1.72c-.21-.05.76-1.63.98-1.72Z"/>
          <path class="st15" d="M214.75,610.25l-.66,1.67c-.31-.07.52-1.54.66-1.67Z"/>
          <path class="st15" d="M215.33,610.99c.08.02-.28.74-.31.82-.08.22-.04.62-.32.75-.06-.16.5-1.61.63-1.57Z"/>
          <path class="st15" d="M212.02,611.85l-1.06,1.56c-.24-.06.92-1.62,1.06-1.56Z"/>
          <path class="st15" d="M212.39,612.7l-.86,1.62c.13-.54.37-1.19.86-1.62Z"/>
          <path class="st15" d="M213.37,609.17c-.18.44-.19,1.01-.58,1.37l.58-1.37Z"/>
          <path class="st15" d="M213.93,609.78c-.28.34-.23.94-.41,1.26-.05.08,0,.12-.17.11.15-.45.14-1,.58-1.37Z"/>
          <path class="st15" d="M212.01,612.49l-.78,1.31c-.23-.06.6-1.23.78-1.31Z"/>
          <polygon class="st15" points="213.45 605.18 213.33 606.19 213.02 606.57 213.45 605.18"/>
          <path class="st15" d="M214.08,610.04l-.48,1.36c.04-.44.14-1.02.48-1.36Z"/>
          <path class="st15" d="M213.72,609.66l-.49,1.3c-.12-.15.39-1.33.49-1.3Z"/>
          <path class="st15" d="M213.57,609.4l-.53,1.33c-.06-.13.42-1.37.53-1.33Z"/>
          <path class="st15" d="M213.7,605.43c.03.12-.16,1.38-.45,1.26l.45-1.26Z"/>
          <path class="st15" d="M211.47,604.63l-.08.31.36-.12-.33.48.09-.24c-.22-.18-.19.13-.27.08-.19-.11.07-.42.23-.51Z"/>
          <path class="st15" d="M210.81,611.33l-.82.88c0-.3.53-.65.82-.88Z"/>
          <polygon class="st15" points="211.4 611.84 210.67 612.95 210.81 612.48 211.4 611.84"/>
          <path class="st15" d="M210.7,610.57c-.2.43-.56.8-.96,1.15l.96-1.15Z"/>
          <path class="st15" d="M220.45,605.96c-.1.36-.05.84-.33,1.16.07-.39.12-.8.33-1.16Z"/>
          <path class="st15" d="M210.99,611.49c-.17.32-.41.74-.75.97.17-.35.45-.68.75-.97Z"/>
          <path class="st15" d="M213.13,605.46c-.01.31-.04.69-.28.95-.07-.02.17-.88.28-.95Z"/>
          <path class="st15" d="M212.58,609.01c-.1.32-.07.75-.41.99l.41-.99Z"/>
          <path class="st15" d="M211.43,612.21l-.62.93c-.12-.04.4-.91.62-.93Z"/>
          <path class="st15" d="M212.94,609.51c-.05.23-.02.7-.33.8.05-.28.24-.55.33-.8Z"/>
          <path class="st15" d="M212.2,608.79c.06.02-.25.73-.42.76,0-.08.33-.79.42-.76Z"/>
          <path class="st15" d="M213.99,610.87c-.05.21.07.53-.16.73-.11-.26.08-.5.16-.73Z"/>
          <path class="st15" d="M214.54,610.19c-.09.06-.32.9-.44.86l.15-.41.29-.45Z"/>
          <path class="st15" d="M209.75,610.14c-.16.24-.25.51-.52.7.06-.24.29-.52.52-.7Z"/>
          <path class="st15" d="M212.69,609.54s-.1.63-.29.65c0-.07.19-.68.29-.65Z"/>
          <path class="st15" d="M209.54,610.02l-.44.62c-.1-.03.34-.67.44-.62Z"/>
          <path class="st15" d="M213.99,610.87c.03-.11,0-.32.07-.46l.26-.35c-.07.28-.24.53-.33.8Z"/>
          <path class="st15" d="M211.75,608.47c0,.23-.09.54-.34.69l.34-.69Z"/>
          <path class="st15" d="M211.98,608.66c-.07.23-.09.52-.34.69-.05-.02.21-.65.34-.69Z"/>
          <path class="st15" d="M209.86,610.44c-.16.21-.24.48-.54.63.09-.22.31-.48.54-.63Z"/>
          <path class="st15" d="M230.05,606.83l-.2.65c-.2-.04.12-.68.2-.65Z"/>
          <path class="st15" d="M212.31,609.09c-.02.16-.08.58-.35.62l.35-.62Z"/>
          <path class="st15" d="M212.6,605.45c0,.22-.05.46-.2.65-.15-.03.11-.6.2-.65Z"/>
          <path class="st15" d="M212.83,605.64c-.04.16,0,.57-.25.62l.25-.62Z"/>
          <path class="st15" d="M211.5,611.44l-.42.52c-.19-.06.36-.55.42-.52Z"/>
          <path class="st15" d="M210.12,610.53l-.34.45c-.05-.13.14-.43.34-.45Z"/>
          <path class="st15" d="M210.72,607.65c.05.08-.11.55-.23.51.02-.16.07-.39.23-.51Z"/>
          <path class="st15" d="M212.07,605.21c.05.18,0,.36-.13.51-.1-.02.05-.46.13-.51Z"/>
          <path class="st15" d="M223.74,606.73c.01-.18-.05-.42.15-.56.04.2-.09.38-.15.56Z"/>
          <path class="st15" d="M216.34,611.8c.06-.18-.02-.43.24-.56,0,.2-.17.39-.24.56Z"/>
          <path class="st15" d="M223.52,606.37c.01-.14-.08-.39.16-.49-.01.17-.11.33-.16.49Z"/>
          <path class="st15" d="M208.87,609.58c0,.06-.18.41-.26.38.04-.13.06-.32.26-.38Z"/>
          <path class="st15" d="M212.94,609.51c.02-.05-.1-.35.13-.39.04.13-.11.28-.13.39Z"/>
          <path class="st15" d="M228.91,607.23c0-.1-.09-.29.09-.36.04.15-.01.23-.09.36Z"/>
          <path class="st15" d="M217.14,606.23c.02-.16.02-.2.07-.37,0,.2-.02.19-.07.37Z"/>
          <path class="st15" d="M218.24,606.04c.02-.05-.07-.29.15-.33.08.11-.14.27-.15.33Z"/>
          <path class="st15" d="M215.49,610.62s-.05.34-.17.31c-.03-.11,0-.27.17-.31Z"/>
          <path class="st15" d="M214.16,605.7c0-.08-.09-.29.09-.36.07.13-.06.27-.09.36Z"/>
          <path class="st15" d="M228.24,606.44l-.08.31c.05-.12-.14-.34.08-.31Z"/>
          <path class="st15" d="M221.65,605.77c0,.1.01.29-.12.34,0-.1-.01-.29.12-.34Z"/>
          <path class="st15" d="M226.8,606.72c0-.09-.09-.29.09-.36.05.13-.06.25-.09.36Z"/>
          <path class="st15" d="M209.06,609.81c-.03.06-.11.3-.23.28-.02-.07.15-.31.23-.28Z"/>
          <path class="st15" d="M212.94,604.88c0,.09.11.25-.11.29-.03-.12.08-.21.11-.29Z"/>
          <path class="st15" d="M214.34,613.82s-.28.31-.32.28c0-.06.28-.31.32-.28Z"/>
          <path class="st15" d="M229.23,606.95c0-.05-.11-.22.07-.25.06.1-.05.18-.07.25Z"/>
          <path class="st15" d="M216.09,605.81c0-.06-.1-.22.07-.25.06.1-.05.19-.07.25Z"/>
          <path class="st15" d="M209.84,611.25c-.06.08-.08.23-.24.21,0-.06.2-.23.24-.21Z"/>
          <path class="st15" d="M222.67,606.41c.01-.11-.02-.12.04-.27-.01.12,0,.13-.04.27Z"/>
          <path class="st15" d="M217.2,605.86c0-.05-.11-.22.07-.25.06.1-.05.18-.07.25Z"/>
          <path class="st15" d="M214.82,605.31s.02.24-.09.24c-.03-.04,0-.28.09-.24Z"/>
          <path class="st15" d="M218.83,606.08s-.14-.17.08-.19c.08.09-.08.17-.08.19Z"/>
          <path class="st15" d="M215.37,605.46s.01.19-.11.17c-.05,0,0-.21.11-.17Z"/>
          <path class="st15" d="M216.24,612.04s.07-.18.09-.24c-.03.08-.09.2-.09.24Z"/>
          <path class="st15" d="M216.19,612.24c.02-.07.04-.14.05-.2,0,0,0,.09-.05.2Z"/>
          <path class="st15" d="M222.71,606.14s-.06-.19.08-.19c.08.1-.08.16-.08.19Z"/>
          <path class="st15" d="M218.04,605.75s-.06-.19.08-.19c.08.1-.08.16-.08.19Z"/>
          <path class="st15" d="M212.77,609.23c.03.07.02.16-.11.17.03-.05-.01-.16.11-.17Z"/>
          <path class="st15" d="M212.94,604.88s-.13-.15.04-.15c.06.07-.04.14-.04.15Z"/>
          <path class="st15" d="M215.08,605.4s.02.17-.07.14c-.04-.02-.02-.17.07-.14Z"/>
          <path class="st15" d="M228.71,606.94s-.13-.15.04-.15c.06.07-.04.14-.04.15Z"/>
          <path class="st15" d="M222.12,606.27s-.13-.15.04-.15c.06.07-.04.14-.04.15Z"/>
          <path class="st15" d="M221.25,606.24s-.13-.15.04-.15c.06.07-.04.14-.04.15Z"/>
          <path class="st15" d="M213.17,605.19s.02.17-.07.14c-.04-.02-.02-.17.07-.14Z"/>
          <path class="st15" d="M216.98,605.62s.02.17-.07.14c-.04-.02-.02-.17.07-.14Z"/>
          <path class="st15" d="M216.63,605.88s-.13-.15.04-.15c.06.07-.04.14-.04.15Z"/>
          <path class="st15" d="M216.62,606.05c0-.07,0-.1.01-.17,0,.07.01.06-.01.17Z"/>
          <path class="st15" d="M215.83,605.72s-.13-.15.04-.15c.06.07-.04.14-.04.15Z"/>
          <path class="st15" d="M214.48,614.02s-.12.17-.16.14.12-.17.16-.14Z"/>
          <path class="st15" d="M217.53,605.69s.02.17-.07.14c-.04-.02-.02-.17.07-.14Z"/>
          <path class="st15" d="M215.82,605.89c0-.07,0-.1.01-.17,0,.07.01.06-.01.17Z"/>
          <path class="st15" d="M208.59,609.59s0,.05-.03.07c-.18.11-.04-.11.03-.07Z"/>
        </g>
        <g>
          <path class="st15" d="M200.31,614.05c-2.7.51-7.09-.81-9.53-1.71-.19-.19-.13-.42-.1-.62.07-.43.25-1,.47-1.4l-.38,1.83.46-1.46.13-.07-.33,1.63c.3-.42.22-1.04.46-1.46,0-.02.21-.34.22-.11l-.46,1.7.69-1.74-.49,1.8.83-1.75c.04.15-.77,1.8-.57,1.84l.81-1.61-.55,1.7.89-1.68-.58,1.8.8-1.68c-.13.57-.59,1.1-.55,1.7l.82-1.55c-.06.47-.65.99-.6,1.47l.89-1.48c.06-.01.12.02.11.06-.07.4-.92,1.07-.92,1.55l1.22-1.47-1.14,1.63,1.25-1.33c-.18.37-.91.92-.97,1.29-.01.08-.07.1.12.13.15-.58.79-.99,1.22-1.47l-1.08,1.22,1.33-.97-1.13.99-.09.27,1.64-1.32c0,.18-1.76,1.32-1.38,1.41.5-.39,1.04-.94,1.54-1.31,0,0,.22-.09.23-.04l-1.53,1.38,1.8-1.22c-.46.45-1.16.79-1.34,1.37l1.72-1.39c-.37.53-1.23.83-1.42,1.44.63-.39.95-1.01,1.75-1.25l-1.33,1.17,1.96-1.4c.1.12-.08.24-.17.31-.51.4-1.32.72-1.71,1.22l2.12-1.27-1.88,1.29c.73-.38,1.38-.88,2.2-1.14l-1.92,1.13,2.59-1.13-2.37,1.25,2.67-1.16-2.55,1.29,3.21-1.36.11.06c-.04.11-2.46.89-2.77,1.17-.07.06-.15.11.03.13l2.86-1.21-2.65,1.3c1.09-.39,2.01-.98,3.21-1.2-.99.37-1.95.76-2.88,1.19l2.89-1.04-2.3,1.11c.78-.32,1.55-.61,2.38-.86-.6.26-1.41.52-1.8.87,1.16-.5,2.25-.91,3.55-1.22-1.08.43-2.31.73-3.3,1.28,1.2-.2,2.51-1.08,3.65-1.28.03,0,.33-.05.2.06l-3.14,1.22,3.87-1.39-3.21,1.36,3.72-1.18-3.48,1.32Z"/>
          <path class="st15" d="M203.78,615.1c-.3-.24-.44-.46-.67-.67l.53-.11-.32.28.58-.19-.36.35c1.12-.44.15-.7-.48-.36-.07-.07-.21-.3-.23-.31-.08-.04-1.55-.03-1.8-.03l3.49-1.25c.34-.03-.19.17-.2.18-.2.08-2.65.86-2.52.99l3.42-1.23-2.9,1.21,3.21-1.09-2.34.95,2.78-.9c.07.1-.37.25-.47.29-.2.09-1.75.59-1.67.71l3.15-1.18c-1,.59-2.31.97-3.39,1.4,1.24-.14,2.24-.8,3.34-1.19l-2.68,1.36,3.18-1.49c-.62.7-2.09,1.03-3.02,1.55l3.15-1.39-2.75,1.5,2.63-1.16-2.22,1.28,2.53-1.16-2.33,1.21,2.32-1.05c.24.17-.64.24-.63.43.24-.05.5-.21.71-.27.02,0,.36-.11.24.02l-2.38.95c.11.16,2.02-.87,2.36-.85l.11.06c-.84.16-1.47.56-2.15.9.1.12,1.32-.55,1.45-.6l.78-.14c-.57,0-1.74.84-2.07.87-.16.01-1.83-.61-1.94-.58s-.38.44-.67.43c.24.21.49-.3.76-.24l-.58.43.82-.44c.27,0-.61.53-.78.52Z"/>
          <path class="st15" d="M210.19,616.71c-.66.2-2.37.46-3.04.19-.36-.14-.66-.43-1.06-.61l.36-.2c.03.18.14.4.5.31-.42-.37-.47-.63.11-.84l-.31.35.53-.19-.4.39.65-.3-.48.46.75-.3-.67.47.88-.38-.71.47c.18.25.64-.35.97-.38-.05.26-.87.41-.67.67l.94-.51-.79.57c.53.08.88-.6,1.13-.76s1.04-.26,1.33-.5c-.66.49-1.57.63-2.07,1.3l2.15-.7c-.21.36-1.01.28-1.36.57.51.12,1.19-.53,1.61-.31l-.36.23Z"/>
          <path class="st15" d="M190.21,612.13c-.62-.22-1.21-.53-1.83-.75.28-.1.33-1.73.59-1.65l-.29,1.59c.34-.51.19-1.25.61-1.67l-.4,1.73.64-1.51-.45,1.53.08.13c.07-.13.15.01.22-.08.04-.06.17-1,.28-1.27-.09.49-.25,1.01-.09,1.5.07-.15.26-1.69.47-1.63-.13.59-.38,1.2-.29,1.82.32-.46.1-1.13.49-1.53.11.03-.48,1.35-.16,1.52.23-.54.12-1.17.51-1.67-.03.16-.48,1.79-.29,1.82l.59-1.77-.32,1.89h-.36Z"/>
          <path class="st15" d="M186.69,610.82c-.71-.23-1.41-.46-2.14-.64-.11-.4-.01-.86.08-1.24-.01.34-.03.78.07,1.12.06-.44.13-.87.23-1.3-.04.44.01.9-.13,1.33l.18-.04c-.01-.32.1-.62.16-.93-.02.35-.1.73.01,1.09l.34-1.36-.1,1.38.35-1.29c.02.43-.36,1.01-.04,1.41l.32-1.42c-.05.49-.28.98-.12,1.48.03-.13.23-1.66.43-1.6.03.27-.43,1.41-.34,1.59.03.07.22.13.26.12.18-.02.27-1.3.56-1.43l-.3,1.52.56-1.43-.4,1.65Z"/>
          <path class="st15" d="M182.92,608.54c-.02.42-.1.85-.02,1.28-.48-.1-1.37-.14-1.72-.22-.03,0-.04-.1-.23-.07-.11-.23.05-.44.08-.66,0,.1.05.23.07.33,0,0-.1.08-.04.15.17,0,.04-.15.04-.15.13-.36.23-.75.29-1.12-.01.47-.08.9-.12,1.36.33-.48.27-1.04.42-1.55.05.54-.17,1-.09,1.53l.29-1.15c.14-.11.1.22.1.23-.04.31-.23.63-.23.95l.38-1.16c.12-.11.12.11.12.13,0,.31-.3.72-.26,1.05.25-.38.32-.8.44-1.21.04.47-.18.82-.24,1.27l.21-.38.11.3c.05-.36-.07-.76.2-1.08,0,.33-.15.69-.12,1.01,0,.03-.04.31.14.19,0-.35.13-.69.19-1.03Z"/>
          <path class="st15" d="M184.14,610.06c-.37-.09-.85-.16-1.25-.24.1-.26.16-.55.21-.81,0,.21-.07.6.13.75-.02-.34.09-.67.15-1-.02.34-.02.71,0,1.06.19-.3.15-.64.25-.97.03.34-.04.66,0,.99.13-.19.17-.48.21-.7,0,.21-.03.53.08.72.08-.36.1-.72.23-1.07.02.44-.2.88-.02,1.28Z"/>
          <path class="st15" d="M188.29,611.38c-.19-.07-.38-.14-.57-.21.04-.65.28-1.26.49-1.88.11.64-.5,1.21-.33,1.86.23.07.28-1.46.55-1.5.1.03-.46,1.26-.18,1.45.21-.44.16-.95.33-1.39.02-.05.09-.26.14-.04l-.43,1.71Z"/>
          <path class="st15" d="M200.94,614.05c-.17,0-.41.08-.62,0,.87-.16,2.21-.78,3.17-1.05-.8.3-1.71.59-2.46.9-.05.02-.26.1-.09.15Z"/>
          <path class="st15" d="M187.15,610.97c-.11-.04-.26-.12-.37-.15l.43-1.16c0,.1-.22.93.07.68-.06.21.12.46-.13.63Z"/>
          <path class="st15" d="M205.41,616.03c-.1-.05-.27-.11-.42-.18l1.26-.51-1.03.55,1.07-.35-.88.49Z"/>
          <path class="st15" d="M206.09,616.3c-.18-.08-.37-.11-.57-.21l.81-.36-.45.36.52-.26-.31.47Z"/>
          <path class="st15" d="M208.83,614.18c-.53.21-1.41.71-1.92.86-1.16.34.33-.59.63-.63l.82-.17-1.81.72c0,.05.04.07.11.06.38-.04,1.61-.79,2.17-.84Z"/>
          <path class="st15" d="M208.69,614.45c-.5.22-1.01.49-1.53.67-.15.05-.23.16-.37.05l1.9-.73Z"/>
          <path class="st15" d="M208.95,614.54l-1.89.79c.18-.18.71-.41.99-.52s.62-.16.9-.28Z"/>
          <path class="st15" d="M209.72,615.04c.16.12-1.57.68-1.77.69l1.77-.69Z"/>
          <path class="st15" d="M209.33,614.99c-.06.16-.5.26-.7.33-.27.1-.56.24-.84.31.41-.29,1-.48,1.54-.64Z"/>
          <path class="st15" d="M210.48,615.95c-.37.37-1.03.44-1.59.61-.05-.11.01-.09.11-.14.32-.15,1.14-.22,1.48-.47Z"/>
          <path class="st15" d="M209.02,614.87c-.04.12-.48.3-.64.36-.09.04-.8.36-.84.31l.69-.37.8-.31Z"/>
          <path class="st15" d="M209.72,615.28l-1.5.61c.33-.32,1.03-.4,1.5-.61Z"/>
          <path class="st15" d="M186.57,609l-.37,1.43c-.04-.44.11-1.02.37-1.43Z"/>
          <path class="st15" d="M208.9,614.74c-.09.1-1.52.73-1.58.68.43-.3,1.04-.49,1.58-.68Z"/>
          <path class="st15" d="M210.01,615.26c.21.13-1.39.72-1.57.74l1.57-.74Z"/>
          <path class="st15" d="M209.93,615.57c.05.17-1.23.57-1.28.5l1.28-.5Z"/>
          <path class="st15" d="M180.83,608.52c-.05.27.06.83-.23.98l.23-.98Z"/>
          <path class="st15" d="M210.35,615.75c.02.19-1.09.62-1.19.49l1.19-.49Z"/>
          <path class="st15" d="M203.49,613c.29-.11.58-.31.96-.33-.2.2-.66.24-.96.33Z"/>
          <path class="st15" d="M181.02,608.87c-.02-.28.03-.36.06-.61-.01.25-.04.37-.06.61Z"/>
          <path class="st15" d="M200.24,613.01c.23-.1.41-.26.73-.29-.14.19-.49.21-.73.29Z"/>
          <path class="st15" d="M185.14,609.11c0-.16-.1-.4.11-.52.06.19-.07.36-.11.52Z"/>
          <path class="st15" d="M184.62,608.94c0-.12-.07-.28.09-.36.08.13-.08.28-.09.36Z"/>
          <path class="st15" d="M181.1,608.09s-.15-.27.05-.32c.06.09-.05.25-.05.32Z"/>
          <path class="st15" d="M189.66,610.18c.02-.1-.05-.28.15-.33.02.12-.11.24-.15.33Z"/>
          <path class="st15" d="M184.92,608.75c.02-.18,0-.13.08-.31,0,.15-.05.19-.08.31Z"/>
          <path class="st15" d="M201.99,612.66c.06-.02.11-.17.28-.13.02.13-.22.11-.28.13Z"/>
          <path class="st15" d="M183.43,608.49s-.11-.23.07-.25c.06.1-.05.19-.07.25Z"/>
          <path class="st15" d="M183.39,608.76c0-.13.02-.15.04-.27-.01.1-.02.17-.04.27Z"/>
          <path class="st15" d="M183.12,608.84c.01-.08.03-.19.04-.27-.01.08-.04.21-.04.27Z"/>
          <path class="st15" d="M183.73,608.19s.07.24-.05.2c-.01,0-.07-.24.05-.2Z"/>
          <path class="st15" d="M182.94,608.21s-.13-.15.04-.15c.06.07-.04.14-.04.15Z"/>
          <path class="st15" d="M183.17,608.4s-.13-.15.04-.15c.06.07-.04.14-.04.15Z"/>
          <path class="st15" d="M183.92,608.53s-.13-.15.04-.15c.06.07-.04.14-.04.15Z"/>
          <path class="st15" d="M182.93,608.38c0-.07-.02-.06.01-.17.01.11,0,.08-.01.17Z"/>
          <path class="st15" d="M184.16,608.79s-.13-.15.04-.15c.06.07-.04.14-.04.15Z"/>
          <path class="st15" d="M183.16,608.57c0-.05,0-.11.01-.17,0,.06,0,.1-.01.17Z"/>
          <path class="st15" d="M183.65,608.85s-.13-.15.04-.15c.06.07-.04.14-.04.15Z"/>
          <path class="st15" d="M181.94,607.99s-.13-.15.04-.15c.06.07-.04.14-.04.15Z"/>
          <path class="st15" d="M182.43,608.26s-.13-.15.04-.15c.06.07-.04.14-.04.15Z"/>
          <path class="st15" d="M182.92,608.54c0-.06,0-.11.01-.17,0,.03,0,.09-.01.17Z"/>
          <path class="st15" d="M181.41,607.74s-.13-.15.04-.15c.06.07-.04.14-.04.15Z"/>
          <path class="st15" d="M181.68,607.9s-.13-.15.04-.15c.06.07-.04.14-.04.15Z"/>
          <path class="st15" d="M183.92,608.53s.13.15-.04.15c-.06-.07.04-.14.04-.15Z"/>
          <path class="st15" d="M183.85,609.14c0-.08,0-.09.01-.17,0,.07,0,.08-.01.17Z"/>
          <path class="st15" d="M181.94,607.99s.13.15-.04.15c-.06-.07.04-.14.04-.15Z"/>
          <path class="st15" d="M181.4,607.91c0-.08-.02-.06.01-.17.01.11,0,.09-.01.17Z"/>
          <path class="st15" d="M183.11,609.01c0-.08,0-.11.01-.17,0,.04,0,.08-.01.17Z"/>
          <path class="st15" d="M184.76,608.31s.02.17-.07.14c-.04-.02-.02-.17.07-.14Z"/>
          <path class="st15" d="M181.39,608.08c0-.06.01-.13.01-.17,0,.04,0,.09-.01.17Z"/>
          <path class="st15" d="M181.09,608.26c0-.06.01-.12.01-.17,0,.04,0,.1-.01.17Z"/>
          <path class="st15" d="M185,608.45s-.13-.15.04-.15c.06.07-.04.14-.04.15Z"/>
          <path class="st15" d="M187.21,609.65c0-.06,0-.1.01-.17,0,.03.11.12-.01.17Z"/>
          <path class="st15" d="M182.49,607.78s.02.17-.07.14c-.04-.02-.02-.17.07-.14Z"/>
          <path class="st15" d="M187.22,609.49s-.13-.15.04-.15c.06.07-.04.14-.04.15Z"/>
          <path class="st15" d="M188.47,609.38s.02.17-.07.14c-.04-.02-.02-.17.07-.14Z"/>
          <path class="st15" d="M190.3,610.13s.02.17-.07.14c-.04-.02-.02-.17.07-.14Z"/>
          <path class="st15" d="M198.75,612.16s-.12.17-.16.14.12-.17.16-.14Z"/>
          <path class="st15" d="M200.16,612.61c.06-.02.08-.15.2-.06.01.06-.17.05-.2.06Z"/>
          <path class="st15" d="M200.75,612.37s-.12.17-.16.14.12-.17.16-.14Z"/>
          <path class="st15" d="M183.87,608.97s-.13-.15.04-.15c.06.07-.04.14-.04.15Z"/>
          <path class="st15" d="M186.94,608.91s0,.05-.03.07c-.18.11-.04-.11.03-.07Z"/>
          <path class="st15" d="M181.09,609.2s.13.15-.04.15c-.06-.07.04-.14.04-.15Z"/>
        </g>
      </g>
    </g>
    <g>
      <path class="st1" d="M183.05,603c-.81.92-1.29,2.09-1.71,3.15-.31.79-1.36,3.57-1.36,4.26,0,.14.11.24.24.34-.27.02-2.94-.34-3.38-.41-.36-.06-.76-.17-1.12-.23-.19-.18,1.41-3.62,1.64-4.07.57-1.1,1.37-2.61,2.22-3.59.21-.25.73-.52.88-.69.36.25,2.46.56,2.66.7.24.17-.25.39-.05.56Z"/>
      <g>
        <path class="st12" d="M178.74,608.44c.12.09.22.24.39.28.06.1-.13.12.01.18.04.02.31-.16.42.06-.39-.14-.54.21-.9.16.33.17.57-.03.67.35-.01.02-.08.15-.09.15-.1.01-.18-.13-.28-.07-.12-.1-.04-.15-.05-.15-.35.13-.02.21.19.34,0,.02-.01.09-.03.1l-.35-.17.31.2c-.27.15-.23.05-.46-.15-.02-.01-.08-.25-.04.04-.07.05-.14-.02-.2-.06.13-.13.03-.23-.11-.06-.04-.03-.04-.06-.07-.1,0,0,.19-.14-.11-.06,0,0-.16.07-.11-.06l.05-.09c-.06-.01-.1.06-.11.06-.03,0-.07.03-.2-.06.15-.15-.06-.09-.07-.1,0,0-.11.06-.05-.03.04-.22-.09-.06-.11-.06-.06-.01-.08.03-.2-.06.32-.15-.05-.09-.07-.1-.01,0,0,.06-.11-.06l.03-.1c.19-.44.5-.44.86-.83l.13.04c-.57.16-.1.37-.08.66.25-.09.06-.33-.09-.43l.41.15-.25-.29.39.13c.08.04.2.1.27.16Z"/>
        <g>
          <path class="st0" d="M178.46,608.28l-.39-.13.25.29-.41-.15c.15.1.34.34.09.43-.02-.29-.49-.5.08-.66.27.02.25.15.38.22Z"/>
          <path class="st0" d="M179.56,608.97c.04.07-.02.08,0,.15-.82-.08-.03.04-.24.36-.1-.39-.34-.18-.67-.35.35.05.5-.3.9-.16Z"/>
          <path class="st0" d="M178.97,609.56s.17.08.19.11c.08.12-.05.08-.05.09-.21-.13-.54-.22-.19-.34.01,0-.07.05.05.15Z"/>
          <path class="st0" d="M179.13,608.72c-.17-.05-.28-.19-.39-.28.33,0,.34.19.39.28Z"/>
          <path class="st0" d="M179.08,609.86s-.03.03-.04.04l-.31-.2.35.17Z"/>
          <path class="st0" d="M178.58,609.75l-.04.04c-.04-.28.02-.05.04-.04Z"/>
          <path class="st11" d="M177.25,609.11c-.05-.03-.02-.07-.07-.1.02,0,.39-.05.07.1Z"/>
          <path class="st13" d="M178.34,609.73s-.08-.04-.11-.06c.14-.16.23-.07.11.06Z"/>
          <path class="st0" d="M177.94,609.44l-.05-.03s.04-.07.11-.06l-.05.09Z"/>
          <path class="st9" d="M178.16,609.57c-.1.06-.05-.03-.11-.06.29-.08.1.05.11.06Z"/>
          <path class="st11" d="M177.56,609.23l-.11-.06s.15-.16.11.06Z"/>
          <path class="st11" d="M177.68,609.36c-.05-.03-.02-.07-.07-.1.01,0,.22-.05.07.1Z"/>
          <path class="st0" d="M177.07,608.95c-.07-.09,0-.05.03-.1l-.03.1Z"/>
          <path class="st17" d="M178.68,608.99c-.14.2-.52-.07-.52-.21l.52.21Z"/>
          <path class="st0" d="M178.45,608.57l.41.38c-.21.02-.47-.25-.41-.38Z"/>
          <polygon class="st0" points="178.68 608.52 178.93 608.81 178.6 608.59 178.68 608.52"/>
          <path class="st0" d="M177.57,608.71c.06,0,0,.3-.03.34-.21-.04-.11-.36.03-.34Z"/>
          <path class="st10" d="M178.33,609.14c.17.09-.14.22-.2.18-.1-.06.09-.23.2-.18Z"/>
          <path class="st11" d="M177.61,608.44l.25.29c-.07.04-.48-.34-.25-.29Z"/>
          <path class="st0" d="M177.45,608.58l-.19.24c-.15-.03.03-.26.19-.24Z"/>
          <polygon class="st17" points="178.01 608.96 178.04 609.12 177.86 609.16 178.01 608.96"/>
          <path class="st10" d="M178.56,609.33c.17.06.14.18-.03.1,0,0-.05-.12.03-.1Z"/>
          <path class="st0" d="M178.33,609.38c.17.06.14.18-.03.1,0,0-.05-.12.03-.1Z"/>
        </g>
      </g>
    </g>
  </g>
</svg>