<?xml version="1.0" encoding="UTF-8"?>
<svg id="Layer_1" xmlns="http://www.w3.org/2000/svg" version="1.1" viewBox="0 0 1290 1628">
  <!-- Generator: Adobe Illustrator 29.5.0, SVG Export Plug-In . SVG Version: 2.1.0 Build 137)  -->
  <defs>
    <style>
      .st0 {
        fill: #012171;
      }

      .st1 {
        font-family: ArialMT, Arial;
        font-size: 36px;
      }

      .st2 {
        fill: #29abe2;
      }

      .st3, .st4 {
        stroke: #fff;
        stroke-miterlimit: 10;
      }

      .st3, .st5 {
        fill: #13e2ac;
      }

      .st4 {
        fill: #fff;
      }

      .st6 {
        fill: #ead181;
      }

      .st7 {
        fill: #20002c;
      }

      .st8 {
        fill: #010025;
      }

      .st9 {
        fill: #1f0c5d;
      }

      .st10 {
        fill: #0889e5;
      }

      .st11 {
        fill: #0e3fba;
      }

      .st12 {
        fill: #b58a33;
      }

      .st13 {
        font-family: GillSans-UltraBold, 'Gill Sans Ultra Bold';
        font-size: 48px;
        font-weight: 700;
      }

      .st14 {
        fill: #010e40;
      }

      .st15 {
        text-decoration: underline;
      }
    </style>
  </defs>
  <rect class="st4" y="6.9" width="1290" height="185"/>
  <rect class="st3" x="19.28" y="50.42" width="734.39" height="84.16" rx="42.08" ry="42.08"/>
  <ellipse class="st3" cx="1102.21" cy="92.5" rx="39.97" ry="40.07"/>
  <ellipse class="st3" cx="970.31" cy="92.5" rx="39.97" ry="40.07"/>
  <rect class="st3" x="1183.49" y="66.45" width="85.94" height="10.02" rx="5.01" ry="5.01"/>
  <rect class="st3" x="1183.49" y="80.48" width="85.94" height="10.02" rx="5.01" ry="5.01"/>
  <rect class="st3" x="1183.49" y="94.5" width="85.94" height="10.02" rx="5.01" ry="5.01"/>
  <rect class="st3" x="1183.49" y="108.53" width="85.94" height="10.02" rx="5.01" ry="5.01"/>
  <text class="st1" transform="translate(93.58 381.78)"><tspan x="0" y="0" xml:space="preserve">           </tspan><tspan x="0" y="86.4">Emne: Din konto er midlertidigt låst – handling krævet</tspan><tspan x="0" y="172.8">Fra: </tspan><tspan class="st2" x="74" y="172.8">support@netbank-sikkerhed.dk</tspan><tspan x="0" y="216">Til: </tspan><tspan class="st2" x="57.99" y="216">123@conartist.com</tspan></text>
  <g id="Generative_Object">
    <path class="st5" d="M137.01,316.74c.67-.12,3.65,2.87,4.05,2.92.43.05,3.57-3.03,4.21-2.92l42.38,33.79-92.94.08,42.3-33.87Z"/>
    <polygon class="st5" points="95.52 276.07 186.84 276.15 141.06 308.8 95.52 276.07"/>
    <polygon class="st5" points="92.93 282.87 135.79 315.69 92.93 349.96 92.93 282.87"/>
    <polygon class="st5" points="189.03 283.04 189.19 349.64 146.33 315.69 189.03 283.04"/>
  </g>
  <text class="st13" transform="translate(216.83 334.26)"><tspan x="0" y="0">NETBANK - VIGTIGT MEDDELELSE!</tspan></text>
  <text class="st1" transform="translate(94.41 798.13)"><tspan x="0" y="0">Kære kunde,</tspan><tspan x="0" y="86.4">Vi har registreret mistænkelig aktivitet på din netbankkonto, og af </tspan><tspan x="0" y="129.6">sikkerhedsmæssige årsager er din adgang midlertidigt blevet </tspan><tspan x="0" y="172.8">begrænset.</tspan><tspan x="0" y="259.2">For at genaktivere din konto bedes du bekræfte dine oplysninger </tspan><tspan x="0" y="302.4">hurtigst muligt via nedenstående link:</tspan><tspan class="st2"><tspan x="0" y="388.8" xml:space="preserve">          </tspan><tspan class="st15" x="100.02" y="388.8">Bekræft din konto nu</tspan></tspan><tspan x="0" y="475.2">Hvis du ikke reagerer inden for 24 timer, forbeholder vi os retten til at </tspan><tspan x="0" y="518.4">suspendere din konto permanent.</tspan><tspan x="0" y="604.8">Tak for din forståelse.</tspan><tspan x="0" y="705.6">Venlig hilsen,</tspan><tspan x="0" y="748.8">Netbank Sikkerhedsteam</tspan></text>
  <g id="Generative_Object1" data-name="Generative_Object">
    <path d="M123.11,1167.54c-.17.27-.71.7-.94,1.08-.91,1.51-1.79,3.78-2.43,5.45-.25.67-2.04,5.87-1.85,6.13.38.07.78.21,1.15.28-.33.43-1.05,2.48-1.45,2.58l-16.42-1.56-.17-.18,13.83-17.59,8.41,3.12s-.11.63-.14.69Z"/>
    <path d="M146.01,1185.11s-.04-.03-.05-.04c.66-.54,1.66-.2.48.51l.38-.54-.61.32.34-.44-.55.19Z"/>
    <g>
      <path class="st6" d="M173.51,1173.49l.29-1.1-.52,1.05c-.02-.28-.04-.59-.03-.87.02-.11.14-.24.08-.38-.18.06-.08.3-.08.38-.05.25-.29.77-.08,1-.11.02-.19.02-.29.04.11-.23.02-.43.03-.6.09-.19.14-.32.11-.53-.19.11-.1.39-.11.53-.04.08-.19.42-.27.41.09-.28.09-.54.07-.83,0-.01.11-.13.05-.23-.17.02-.04.22-.05.23-.04.13-.18.93-.31.91v-.94c-.03.1-.11,1.18-.31,1.05l.09-1.08c-.26.2-.05.95-.43.99l.15-1.21c-.22.37-.05.97-.45,1.24l.2-1.26-.45,1.24c-.1-.03.31-1.07.1-1.2l-.4,1.24.18-1.36-.44,1.34c.03-.39.05-.79.08-1.18.04-.16.16-.35.11-.53-.19.11-.1.41-.11.53-.1.41-.16.85-.35,1.23l.17-1.73-.42,1.71s-.03.01-.1.01l.17-1.29-.4,1.19.19-1.71-.46,1.77.12-1.73-.31,1.75s-.04-.04-.05-.04l.1-1.43-.35,1.41s-.03.01-.1.01l.19-1.54c-.14-.06-.3,1.88-.48,1.35l.22-1.47-.47,1.5.2-1.61-.51,1.72.2-1.84-.4,1.86s-.04-.04-.05-.04l.22-1.69-.41,1.59c-.14-.04-.08-.7-.07-.81.07-.27.2-.55.17-.84-.21.23-.15.58-.17.84-.05.21-.11.8-.33.81.1-.44.07-.89.11-1.33.05-.24.16-.49.18-.74-.25.16-.16.53-.18.74-.03.14-.26,1.33-.36,1.31l.1-1.25c-.21.16-.19,1.28-.45,1.24l.22-1.52-.51,1.55c.08-.41.08-.82.13-1.23.05-.21.03-.23.05-.4,0-.04.16-.14.09-.28-.15,0-.08.24-.09.28-.06.22-.03.23-.05.4-.1.41-.16.92-.47,1.22l.28-1.42c-.04-.32-.12,0-.14.07-.12.4-.07.93-.34,1.28.04-.49.15-.82.11-1.33,0-.01.11-.13.05-.23-.17.01-.04.22-.05.23-.1.47-.13,1.04-.42,1.44l.27-2.09c-.29.41-.18,1.41-.38,1.78-.03.06-.21.35-.28.13.14-.39.3-.86.2-1.26l-.45,1.47s-.02.01-.1.01c.18-.49.27-.94.27-1.47,0-.02.11-.13.05-.23-.17.02-.04.22-.05.23-.13.48-.25.97-.42,1.44,0,0-.02.01-.1.01l.27-1.65-.53,1.63.28-1.99c-.31.63-.18,1.43-.63,1.99,0,0-.02.01-.1.01-.24-.54.06-1.29.1-1.87-.3.1-.2,1.76-.44,1.69l.24-2.11c-.15-.15-.33,2.12-.5,2.27-.17,0-.34-.03-.5-.04l.2-1.89-.45,1.87s-.02.01-.1.01c.08-.5.16-.95.17-1.46,0-.03.16-.15.09-.28-.22.05-.09.27-.09.28-.05.17-.3,1.48-.51,1.38l.41-1.94c-.47.46-.18,1.31-.57,1.86.06-.4.01-.95.07-1.32.01-.09.24-.33.16-.49-.23.06-.15.41-.16.49-.04.16-.21,1.37-.36,1.31.09-.57.11-1.16.17-1.73,0-.04.16-.14.09-.28-.15,0-.08.25-.09.28-.18.61-.17,1.23-.38,1.83,0,0-.02.01-.1.01l.24-1.94-.49,1.92.15-1.48-.4,1.46s-.02.01-.1.01c.14-.35.08-.73.12-1.06.05-.27.07-.26.08-.56.02-.11.14-.24.08-.38-.18.06-.07.31-.08.38-.06.25-.06.32-.08.56-.07.34-.19.69-.27,1.03,0,0-.02.01-.1.01l.19-1.54-.44,1.52c.02-.42.08-.83.1-1.25.03-.16.01-.15.02-.25,0-.03.11-.12.05-.23-.18.02-.04.2-.05.23-.01.11-.01.15-.02.25-.08.41-.2.84-.35,1.23l.09-1.57-.38,1.61s-.04-.04-.05-.04c.11-.53.16-1.01.16-1.56.02-.1.14-.24.08-.38-.18.06-.08.29-.08.38-.09.5-.16,1.09-.41,1.54.02-.48.11-.92.13-1.41.03-.16.01-.15.02-.25,0-.03.11-.12.05-.23-.18.02-.04.2-.05.23-.01.11-.01.15-.02.25-.1.48-.21.99-.42,1.44-.02,0-.04-.04-.05-.04l.2-1.44c-.28.46-.11,1.06-.55,1.43l.24-1.54-.43,1.57s-.04-.04-.05-.04l.24-1.49c-.17.18-.28,1.39-.53,1.35l.19-1.31-.48,1.35.37-1.88c-.03-.32-.12,0-.14.07-.12.54-.13,1.13-.4,1.64-.02-.42.07-.86.12-1.28.03-.14.18-.34.11-.53-.19.1-.1.41-.11.53-.12.48-.23,1.17-.54,1.53.09-.45.27-.92.33-1.38,0-.02.1-.61-.06-.49-.09.39-.09.9-.2,1.26-.1.33-.45.66-.46.7-.02.08.13.12.14.16.79,1.86,3.42,3.66,4.08,5.87-.05.12.06.81.03.87-.11.19-.44.23-.51.31-.08.1-.1.64-.25.78l.13-.96c-.3.29-.24.95-.46,1.37-.04.02-.06.14-.14.07.09-.15.24-1.19.25-1.44-.09.43-.53,1.16-.34,1.55-.04.04-.08.02-.14.07-.14-.15-.06-.47-.03-.64.06-.17.06-.29.06-.31,0-.05.08-.24.11-.36.08-.26.26-.55.27-.85-.27.21-.2.58-.27.85-.03.09-.08.3-.11.36-.02.1-.04.2-.06.31-.06.16-.19.38-.26.55l.42-1.89c-.45.54-.45,1.51-.75,2.2-.03-.92.44-1.82.59-2.73-.47.78-.44,1.89-.93,2.59l.71-2.77-.99,2.95.72-3.11c-.2.87-.87,2.17-.88,3.03,0,.19.15.24.15.25.08,1.72.46,2.07-1.27,3.08l.45-1.02-.77,1.04.45-1.2c-.27.39-.63.94-.6,1.44-.09.04-.09,0-.1.01-.23-.26.6-1.58.53-1.63-.28.08-.74,1.76-.9,1.6l.93-2.2-1.26,2.33.73-2.17-1.08,2.16,1-2.45-1.25,2.43,1.1-2.86c-.45.87-.95,1.84-1.21,2.78-.02.08.07.35.07.36-.29,1.24-.85,1.63-1.97,2.17l.38-.37c-.42-.3-1.15.69-1.67.55.38-.44,1.2-.37,1.43-.92l-2.24,1.16c.54-1.02,1.49-1.29,2.19-2.05-.31.37-1.12.55-1.39.81s-.66,1.27-1.2,1.19l.84-.89-.99.81c-.19-.38.65-.64.72-1.03-.34.06-.84.98-1.02.62l.76-.74-.92.61.71-.73-.79.49.51-.71-.69.48.43-.6-.56.31.33-.54c-.61.36-.56.74-.15,1.26-.37.15-.47-.17-.5-.44l-.38.32.34-.71-.55.41.48-.55-.85.57s-.07-.06-.11-.09l.92-.78-1.12.58,1.09-.87-1.32.83c-.11-.07-.17-.04-.21-.07l1.41-.89c-.45-.12-.86.61-1.31.7l1.08-.92c-.51.18-1.02.54-1.4.94-.05-.04-.11-.08-.16-.13l1.35-.98c-.78-.39-1,.1-1.63.49l.94-.86c-.48.06-.79.59-1.22.82-.04-.05-.02-.09-.07-.14.17,0,1.1-.85.82-.82l-.86.7.62-.67c-.28-.08-.56.7-.8.39.3,0,.6-.64.71-.68s1.82.78,1.98.76c.34-.06,1.58-1.37,2.17-1.4l-.81.25c-.14.08-1.42,1.14-1.52.98.71-.55,1.39-1.18,2.26-1.46l-.11-.09c-.34-.02-2.36,1.62-2.47,1.39l2.5-1.54c.12-.2-.23-.03-.25-.02-.22.1-.5.35-.74.44,0-.28.9-.43.66-.68l-2.43,1.68,2.45-1.93-2.66,1.86,2.34-2.02-2.76,1.87,2.89-2.38-3.31,2.23c.99-.82,2.52-1.39,3.18-2.46l-3.34,2.38,2.82-2.17c-1.15.65-2.21,1.68-3.49,1.96,1.13-.69,2.5-1.34,3.55-2.26l-3.29,1.93c-.08-.17,1.54-1.01,1.75-1.15.1-.07.56-.31.49-.46l-2.9,1.49,2.45-1.53-3.36,1.79,3.04-1.95-3.58,2.02c-.13-.18,2.43-1.48,2.64-1.61.02-.01.57-.33.22-.27l-3.65,2.05s-.03.01-.1.01c-.17-.07.04-.2.1-.23.79-.51,1.75-.98,2.58-1.47.32-.14.79-.23,1-.54-.4.06-.69.36-1,.54-1.01.46-2.42,1.44-3.32,1.74l3.64-2.15-3.89,1.95,3.36-2.19-4.05,2.27,3.29-1.98c.13-.16-.18-.08-.21-.07-1.18.35-2.57,1.74-3.82,2.09,1.03-.87,2.32-1.38,3.45-2.08.06-.04.31-.01.3-.21-.18-.04-.23.18-.3.21-1.35.53-2.49,1.2-3.71,2.01.42-.55,1.27-.98,1.89-1.39.25-.13.61-.18.76-.46-.33.05-.53.31-.76.46-.86.43-1.67.9-2.49,1.41l2.42-1.78-3.02,1.7c.98-.68,1.99-1.32,3.02-1.92.03-.01.22,0,.21-.1-.12-.12-.15.06-.21.1-1.25.4-2.23,1.33-3.36,1.97l2.78-2.07-2.99,1.95c-.19-.02-.09-.1-.02-.2.33-.44,2.85-1.72,2.9-1.89l-.11-.09-3.36,2.19,2.68-2.06-2.8,1.87,2.49-1.99-2.71,1.81,2.02-1.78c-.86.43-1.55,1.21-2.31,1.82l1.99-2.03-2.24,2.01c.42-.77,1.26-1.28,1.81-1.9.1-.11.29-.3.19-.47l-2.07,2.18,1.42-1.81c-.83.4-1.19,1.35-1.85,1.96.22-.91,1.12-1.41,1.52-2.22l-1.83,2.15c.2-.87.94-1.41,1.44-2.11l-1.91,1.92,1.63-2.13c-.01-.07-.23.07-.24.08-.53.58-1.11,1.42-1.64,2.03-.39-.1,1.47-1.89,1.48-2.16l-1.74,2.04.1-.41,1.21-1.53-1.41,1.51,1.17-1.88c-.47.73-1.14,1.38-1.32,2.24-.2-.03-.14-.06-.12-.18.08-.54.86-1.41,1.06-1.96l-1.34,2.05,1.24-2.48-1.32,2.24c.02-.72.93-1.75,1.01-2.35,0-.07-.04-.11-.11-.09l-.97,2.25c-.03-.72.6-1.51.68-2.22l-.91,2.34c-.01-.89.48-1.7.64-2.56l-.89,2.54.67-2.71-.99,2.55.64-2.56-.9,2.44c-.2-.04.7-2.53.66-2.76l-.93,2.64.57-2.7-.78,2.62.54-2.55c0-.34-.22.15-.23.18-.26.64-.21,1.56-.53,2.2l.4-2.43-.14.12-.53,2.2.47-2.74c-.25.61-.46,1.46-.54,2.1-.04.3-.11.64.08.91-.19-.09-.39-.19-.58-.28l.37-.02.41-2.83-.67,2.66c-.2-.04.33-2.49.37-2.72-.42.75-.34,1.69-.59,2.5-.32-.24.34-2.22.23-2.26-.43.62-.22,1.61-.57,2.3-.07-.92.22-1.84.37-2.72-.21-.08-.47,2.21-.55,2.45-.14-.72.05-1.5.16-2.23.04-.13.18-.31.16-.49-.2.08-.14.34-.16.49-.13.4-.3,1.82-.34,1.9-.07.13-.16-.07-.23.13l-.07-.19.52-2.3-.72,2.27.48-2.59c-.45.65-.32,1.74-.69,2.52l.36-2.38c-.27-.1-.38,2.32-.67,2.49,0,0,0,.05-.1.01l.51-2.57c-.04-.32-.12,0-.14.07-.19.67-.16,1.42-.4,2.08-.28-.26.34-2.13.24-2.16-.28.08-.39,2.35-.62,2.26-.15-.96.5-1.83.41-2.78-.25.93-.51,1.86-.58,2.82-.2-.09-.38-.19-.58-.28.27-.26.09-.63.16-.94-.31.38-.06-.86-.05-1.01.13-.08.02-.21.02-.25,0-.03.11-.12.05-.23-.18.02-.04.2-.05.23-.01.1-.01.16-.02.25l-.49,1.75s0,.05-.1.01l.48-2.46-.64,2.16.37-2.28c-.3.22-.45,2.12-.64,2.16-.04.01-.23-.07-.27-.17-.09-.26.43-1.98.41-2.38-.21-.08-.47,2.2-.51,2.39-.15-.73.12-1.47.18-2.21l-.39,2.13c-.32-.58.1-1.45.1-2.1l-.41,1.94.15-2.05-.4,2.03c-.1-.52,0-1.09.03-1.62.04-.25.18-.51.13-.78-.22.2-.11.55-.13.78-.08.46-.21.92-.21,1.39l-.19.07c.16-.65.13-1.33.19-1.98.03-.17.08-.24.09-.46,0-.03.11-.12.05-.23-.18.02-.04.22-.05.23-.09.26-.07.19-.09.46-.13.65-.21,1.29-.29,1.95-.09-.5-.05-1.15-.02-1.66.02-.11.19-.35.11-.53-.17.13-.1.36-.11.53-.1.58-.23,1.27-.13,1.85-.14-.04-.31-.12-.41-.15-.17-.57.08-1.24.07-1.89,0-.02.11-.13.05-.23-.17.02-.04.22-.05.23-.15.53-.18,1.06-.28,1.6-.1-.28-.06-.75-.05-1.06.02-.14.01-.14.02-.25,0-.03.11-.12.05-.23-.18.02-.04.2-.05.23-.01.11-.02.13-.02.25-.05.32-.11.75-.25,1.05-.02-.49.07-.97.05-1.47,0-.01.11-.13.05-.23-.17.01-.04.22-.05.23-.11.49-.09.99-.3,1.45,0-.51,0-1.06.04-1.57.02-.15.04-.25.05-.4.02-.09.14-.24.08-.38-.18.05-.07.32-.08.38-.03.18-.04.21-.05.4-.08.49-.2.98-.19,1.49-.21-.22-.12-.79-.11-1.1.02-.13.01-.2.02-.25,0-.08.04-.28.05-.4,0-.1.01-.16.02-.25,0-.02.11-.12.05-.23-.18.02-.04.2-.05.23-.01.09-.01.17-.02.25-.01.12-.03.28-.05.4,0,.08-.02.13-.02.25-.06.4-.14.84-.25,1.22-.06-.63.03-1.27.07-1.89.02-.12.01-.21.02-.25.02-.13.03-.09.02-.25,0-.01.11-.13.05-.23-.17.01-.04.22-.05.23-.04.17-.01.15-.02.25,0,.08-.01.16-.02.25-.08.51-.23,1.02-.24,1.54-.18.18-.13-.24-.13-.28-.01-.48.16-1.03.17-1.51-.29.5-.19,1.08-.25,1.62l-.1-.43-.23.57c.07-.67.32-1.2.29-1.9,0-.01.11-.13.05-.23-.17.01-.04.22-.05.23-.14.61-.23,1.25-.5,1.82-.03-.49.29-1.12.31-1.58,0-.03,0-.35-.12-.18l-.44,1.74c.02-.48.23-.96.28-1.42,0-.02.06-.5-.09-.34l-.34,1.73c-.06-.78.18-1.47.15-2.28,0-.01.11-.13.05-.23-.17.01-.04.22-.05.23-.18.77-.13,1.59-.49,2.32.06-.69.15-1.34.18-2.03.02-.12.01-.2.02-.25.02-.12.03-.09.02-.25,0-.01.11-.13.05-.23-.17.01-.04.22-.05.23-.04.17-.02.13-.02.25,0,.05-.02.15-.02.25-.08.56-.19,1.13-.35,1.68-.01-.15-.06-.34-.06-.49.04-.35.07-.53.09-.9.01-.1.01-.19.02-.25,0-.1.12-.34.07-.48-.21.09-.06.41-.07.48,0,.06-.01.16-.02.25-.05.37-.1.48-.09.9-.04.32-.21.65-.11.98.2-.04.21.09.23.1-.36.52-.44,1.66-1.03,1.76-.13-.15-.24-.29-.23-.49.03-1.01,1.22-5.2,1.57-6.39.47-1.59,1.01-3.35,1.89-4.77,4.29,1.44,8.42,1.16,12.77.34,3.84-.73,8.04-2.25,11.78-2.8,2.39-.35,3.05,1.17,5.27,1.7l19.55,3.23c-.08,1.06-.68,1.47-1.6,1.76Z"/>
      <g>
        <g>
          <path class="st12" d="M156.54,1185.59c-.44.17-.88.29-1.35.36,0-.02-.09-.28-.07-.36.26-.94.76-1.91,1.21-2.78l-1.1,2.86,1.25-2.43-1,2.45,1.08-2.16-.73,2.17,1.26-2.33-.93,2.2c.16.16.62-1.52.9-1.6.08.04-.75,1.37-.53,1.63Z"/>
          <path class="st12" d="M167.85,1173.47c-.78-.02-1.56-.04-2.34-.07.29-.4.33-.97.42-1.44.04.51-.07.84-.11,1.33.28-.36.23-.88.34-1.28.02-.07.11-.38.14-.07l-.28,1.42c.32-.3.38-.81.47-1.22-.04.41-.05.82-.13,1.23l.51-1.55-.22,1.52c.26.04.24-1.08.45-1.24l-.1,1.25c.1.02.33-1.17.36-1.31-.04.44-.01.89-.11,1.33.22,0,.27-.6.33-.81,0,.11-.07.77.07.81l.41-1.59-.22,1.69Z"/>
          <path class="st12" d="M158.38,1173.11c-.43,0-1.01.05-1.41.22-.02-.04-.16-.08-.14-.16.01-.04.36-.37.46-.7.11-.37.11-.88.2-1.26.16-.12.06.47.06.49-.06.46-.24.93-.33,1.38.3-.36.42-1.05.54-1.53-.05.42-.14.86-.12,1.28.27-.51.28-1.1.4-1.64.02-.07.11-.38.14-.07l-.37,1.88.48-1.35-.19,1.31c.25.03.36-1.18.53-1.35l-.24,1.49Z"/>
          <path class="st12" d="M158.99,1182.02c-.2.07-.39.22-.62.22,0-.01-.16-.06-.15-.25.01-.86.68-2.17.88-3.03l-.72,3.11.99-2.95-.71,2.77c.49-.7.46-1.82.93-2.59-.15.91-.62,1.81-.59,2.73Z"/>
          <path class="st12" d="M147.3,1186.75c-.17-.15-.41-.37-.56-.53.43-.23.74-.76,1.22-.82l-.94.86c.63-.4.85-.88,1.63-.49l-1.35.98Z"/>
          <path class="st12" d="M172.09,1173.61c-.58.03-1.11,0-1.69,0,.18-.38.25-.83.35-1.23-.04.39-.06.79-.08,1.18l.44-1.34-.18,1.36.4-1.24c.21.13-.21,1.17-.1,1.2l.45-1.24-.2,1.26c.4-.28.22-.87.45-1.24l-.15,1.21c.38-.05.17-.79.43-.99l-.09,1.08Z"/>
          <path class="st12" d="M162.55,1171.87c-.01.51-.1.96-.17,1.46-.34-.01-.67-.07-1-.08.2-.6.19-1.23.38-1.83-.06.58-.08,1.16-.17,1.73.15.06.33-1.15.36-1.31-.05.38,0,.92-.07,1.32.39-.55.1-1.4.57-1.86l-.41,1.94c.21.1.46-1.2.51-1.38Z"/>
          <path class="st12" d="M159.98,1181.56c.22-.42.16-1.08.46-1.37l-.13.96c.16-.14.18-.67.25-.78.07-.08.4-.12.51-.31.03-.06-.08-.74-.03-.87.34,1.15-.05,1.75-1.06,2.36Z"/>
          <path class="st12" d="M168.95,1173.54c-.29,0-.57-.04-.85-.05l.51-1.72-.2,1.61.47-1.5-.22,1.47c.18.53.35-1.41.48-1.35l-.19,1.54Z"/>
          <path class="st12" d="M163.82,1173.4c-.2,0-.4-.02-.6-.03.17-.15.35-2.41.5-2.27l-.24,2.11c.24.07.15-1.59.44-1.69-.04.58-.34,1.33-.1,1.87Z"/>
          <path class="st12" d="M165.51,1173.4c-.18,0-.43.03-.64.03l.45-1.47c.1.4-.05.88-.2,1.26.07.22.25-.07.28-.13.2-.37.09-1.38.38-1.78l-.27,2.09Z"/>
          <path class="st12" d="M147.68,1187.05c-.07-.05-.15-.12-.22-.17.38-.39.89-.75,1.4-.94l-1.08.92c.44-.1.86-.82,1.31-.7l-1.41.89Z"/>
          <path class="st12" d="M159.59,1181.16c-.03.17-.12.49.03.64-.18.13-.42.15-.62.22.3-.69.31-1.66.75-2.2l-.42,1.89c.07-.17.2-.39.26-.55Z"/>
          <path class="st12" d="M170.05,1173.6c-.18,0-.34-.04-.5-.04l.46-1.77-.19,1.71.4-1.19-.17,1.29Z"/>
          <path class="st12" d="M172.91,1173.01c0,.17.08.37-.03.6-.27.03-.54-.02-.79,0,.2.13.28-.96.3-1.05v.94c.15.03.29-.77.33-.91.01.29.02.54-.07.83.08.02.24-.32.27-.41Z"/>
          <path class="st12" d="M157.1,1185.33c-.16.09-.3.18-.47.25-.04-.5.33-1.05.6-1.44l-.45,1.2.77-1.04-.45,1.02Z"/>
          <path class="st12" d="M173.51,1173.49c-.15.05-.17.06-.34.09-.21-.23.02-.75.08-1,0,.28,0,.59.03.87l.52-1.05-.29,1.1Z"/>
          <path class="st12" d="M164.27,1173.4c-.11,0-.23,0-.35,0,.45-.56.32-1.36.63-1.99l-.28,1.99Z"/>
          <path class="st12" d="M164.52,1173.42c-.1,0-.19-.02-.25-.02l.53-1.63-.27,1.65Z"/>
          <path class="st12" d="M161.27,1173.26c-.09,0-.17-.02-.25-.02l.49-1.92-.24,1.94Z"/>
          <path class="st12" d="M162.72,1173.34c-.1,0-.19-.02-.25-.02l.45-1.87-.2,1.89Z"/>
          <path class="st12" d="M168.1,1173.49s-.1.03-.2.02l.4-1.86-.2,1.84Z"/>
          <path class="st12" d="M158.98,1173.14c-.12,0-.24,0-.35,0,.44-.37.27-.97.55-1.43l-.2,1.44Z"/>
          <path class="st12" d="M170.4,1173.61c-.12,0-.2-.02-.25-.02l.42-1.71-.17,1.73Z"/>
          <path class="st12" d="M159.57,1173.17c-.11,0-.2-.02-.25-.02.25-.45.32-1.04.41-1.54,0,.54-.05,1.03-.16,1.56Z"/>
          <path class="st12" d="M159.84,1181.62s-.06.08-.09.11c-.19-.4.24-1.12.34-1.55-.01.25-.16,1.29-.25,1.44Z"/>
          <path class="st12" d="M159.92,1173.17s-.17.04-.29.04l.38-1.61-.09,1.57Z"/>
          <path class="st12" d="M158.63,1173.13s-.11.02-.2.02l.43-1.57-.24,1.54Z"/>
          <path class="st12" d="M161.02,1173.24c-.09,0-.17-.02-.25-.02l.4-1.46-.15,1.48Z"/>
          <path class="st12" d="M160.42,1173.21c-.09,0-.17-.02-.25-.02l.44-1.52-.19,1.54Z"/>
          <path class="st12" d="M169.55,1173.56s-.1.03-.2.02l.31-1.75-.12,1.73Z"/>
          <path class="st12" d="M169.3,1173.54c-.11,0-.2-.02-.25-.02l.35-1.41-.1,1.43Z"/>
          <path class="st12" d="M164.77,1173.44c-.11,0-.14-.03-.15-.03.18-.47.29-.96.42-1.44,0,.53-.09.98-.27,1.47Z"/>
          <path class="st12" d="M159.32,1173.15c-.05,0-.17.04-.29.04.21-.45.33-.96.42-1.44-.02.49-.11.93-.13,1.41Z"/>
          <path class="st12" d="M160.17,1173.19c-.1,0-.19-.02-.25-.02.14-.39.27-.82.35-1.23-.02.43-.08.83-.1,1.25Z"/>
          <path class="st12" d="M160.67,1173.23c-.11,0-.14-.03-.15-.03.08-.34.21-.69.27-1.03-.04.33.02.71-.12,1.06Z"/>
          <path class="st12" d="M156.37,1182.26l-1.37,3.09c-.14-.05.7-2.69.96-2.75-.17.38-.46.86-.39,1.29l.8-1.63Z"/>
          <path class="st12" d="M156.06,1181.75l-1.2,3.22c-.19-.07,1-3.34,1.2-3.22Z"/>
          <path class="st12" d="M158.67,1178.66l-.71,2.81c-.19-.88.35-1.99.71-2.81Z"/>
          <path class="st12" d="M158.36,1178.6l-.67,2.66c-.14-.9.28-1.88.67-2.66Z"/>
          <path class="st12" d="M155.63,1181.51l-1.08,2.61c-.22-.07.85-2.47,1.08-2.61Z"/>
          <path class="st12" d="M158.17,1178.27l-.74,2.52c-.32-.08.59-2.31.74-2.52Z"/>
          <path class="st12" d="M158.75,1179.35c.08.03-.32,1.11-.35,1.23-.09.33-.07.92-.36,1.14-.05-.24.57-2.42.71-2.37Z"/>
          <path class="st12" d="M155.3,1180.8l-1.16,2.37c-.25-.08,1.01-2.45,1.16-2.37Z"/>
          <path class="st12" d="M155.65,1182.05l-.95,2.45c.15-.81.43-1.79.95-2.45Z"/>
          <path class="st12" d="M156.8,1176.75c-.2.67-.24,1.51-.65,2.06l.65-2.06Z"/>
          <path class="st12" d="M157.35,1177.63c-.3.52-.27,1.41-.47,1.89-.05.12,0,.18-.18.17.18-.68.19-1.49.65-2.06Z"/>
          <path class="st12" d="M155.26,1181.75l-.85,1.99c-.23-.08.67-1.86.85-1.99Z"/>
          <polygon class="st12" points="157.03 1170.81 156.87 1172.32 156.54 1172.91 157.03 1170.81"/>
          <path class="st12" d="M157.5,1178.01l-.55,2.05c.06-.65.18-1.53.55-2.05Z"/>
          <path class="st12" d="M157.13,1177.45l-.56,1.95c-.12-.21.45-2,.56-1.95Z"/>
          <path class="st12" d="M156.99,1177.07l-.6,2.01c-.06-.19.48-2.06.6-2.01Z"/>
          <path class="st12" d="M157.28,1171.18c.02.17-.22,2.06-.52,1.9l.52-1.9Z"/>
          <path class="st12" d="M155.01,1170.11l-.09.46.37-.19-.36.74.11-.36c-.22-.26-.2.2-.28.13-.19-.16.09-.63.25-.78Z"/>
          <path class="st12" d="M154.07,1180.1l-.88,1.35c.02-.44.57-.99.88-1.35Z"/>
          <polygon class="st12" points="154.66 1180.83 153.86 1182.51 154.03 1181.8 154.66 1180.83"/>
          <path class="st12" d="M153.99,1178.97c-.23.65-.61,1.22-1.03,1.76l1.03-1.76Z"/>
          <path class="st12" d="M164.23,1171.59c-.12.55-.09,1.25-.39,1.73.09-.58.15-1.2.39-1.73Z"/>
          <path class="st12" d="M154.25,1180.33c-.18.48-.45,1.12-.82,1.49.19-.53.49-1.03.82-1.49Z"/>
          <path class="st12" d="M156.69,1171.25c-.03.46-.07,1.03-.33,1.43-.07-.02.21-1.32.33-1.43Z"/>
          <path class="st12" d="M155.98,1176.55c-.12.48-.1,1.12-.47,1.5l.47-1.5Z"/>
          <path class="st12" d="M154.67,1181.37l-.67,1.42c-.13-.05.45-1.37.67-1.42Z"/>
          <path class="st12" d="M156.34,1177.28c-.06.34-.05,1.05-.38,1.21.07-.41.27-.83.38-1.21Z"/>
          <path class="st12" d="M155.6,1176.25c.06.03-.29,1.09-.46,1.15,0-.12.37-1.19.46-1.15Z"/>
          <path class="st12" d="M157.37,1179.24c-.06.31.06.78-.19,1.09-.1-.38.1-.74.19-1.09Z"/>
          <path class="st12" d="M157.97,1178.2c-.09.1-.37,1.35-.49,1.3l.17-.62.32-.68Z"/>
          <path class="st12" d="M153.03,1178.39c-.17.36-.27.77-.57,1.06.07-.36.32-.79.57-1.06Z"/>
          <path class="st12" d="M156.08,1177.33s-.13.94-.33.98c0-.1.22-1.02.33-.98Z"/>
          <path class="st12" d="M152.81,1178.22l-.48.95c-.11-.04.37-1.01.48-.95Z"/>
          <path class="st12" d="M157.37,1179.24c.03-.17.01-.48.09-.68l.28-.53c-.08.42-.27.81-.38,1.21Z"/>
          <path class="st12" d="M155.15,1175.8c-.01.34-.11.81-.37,1.04l.37-1.04Z"/>
          <path class="st12" d="M155.38,1176.07c-.08.34-.11.77-.37,1.04-.05-.02.25-.97.37-1.04Z"/>
          <path class="st12" d="M153.13,1178.83c-.17.32-.27.73-.58.96.1-.32.34-.72.58-.96Z"/>
          <path class="st12" d="M174.1,1172.35l-.23.97c-.21-.04.15-1.01.23-.97Z"/>
          <path class="st12" d="M155.7,1176.68c-.03.25-.1.87-.38.94l.38-.94Z"/>
          <path class="st12" d="M156.15,1171.27c-.02.33-.07.68-.23.97-.15-.03.14-.9.23-.97Z"/>
          <path class="st12" d="M156.38,1171.54c-.05.24-.02.85-.29.93l.29-.93Z"/>
          <path class="st12" d="M154.78,1180.22l-.45.8c-.2-.08.39-.84.45-.8Z"/>
          <path class="st12" d="M153.39,1178.94l-.36.69c-.05-.18.16-.65.36-.69Z"/>
          <path class="st12" d="M154.12,1174.64c.05.11-.14.82-.25.78.03-.24.09-.58.25-.78Z"/>
          <path class="st12" d="M155.61,1170.93c.05.26-.02.54-.16.76-.1-.03.07-.68.16-.76Z"/>
          <path class="st12" d="M167.59,1172.56c.02-.26-.03-.61.17-.84.03.29-.1.57-.17.84Z"/>
          <path class="st12" d="M159.75,1180.49c.07-.28,0-.64.27-.85-.01.3-.19.59-.27.85Z"/>
          <path class="st12" d="M167.38,1172.03c.02-.21-.06-.58.18-.74-.02.25-.13.5-.18.74Z"/>
          <path class="st12" d="M152.14,1177.6c0,.09-.2.62-.28.58.05-.19.08-.48.28-.58Z"/>
          <path class="st12" d="M156.34,1177.28c.02-.08-.09-.52.15-.59.03.19-.12.42-.15.59Z"/>
          <path class="st12" d="M172.91,1173.01c0-.14-.08-.42.11-.53.03.22-.02.35-.11.53Z"/>
          <path class="st12" d="M160.8,1172.18c.03-.23.03-.3.08-.56-.01.3-.03.29-.08.56Z"/>
          <path class="st12" d="M161.95,1171.84c.02-.08-.06-.43.16-.49.08.16-.15.4-.16.49Z"/>
          <path class="st12" d="M158.93,1178.78c-.02.07-.06.51-.19.47-.02-.17,0-.4.19-.47Z"/>
          <path class="st12" d="M157.74,1171.55c.01-.12-.08-.43.11-.53.07.19-.08.4-.11.53Z"/>
          <path class="st12" d="M172.25,1171.87l-.09.46c.06-.18-.13-.5.09-.46Z"/>
          <path class="st12" d="M165.48,1171.24c0,.15,0,.42-.14.51,0-.15,0-.42.14-.51Z"/>
          <path class="st12" d="M170.75,1172.38c.01-.13-.08-.43.11-.53.05.19-.07.37-.11.53Z"/>
          <path class="st12" d="M152.32,1177.93c-.03.09-.13.45-.25.43-.02-.11.16-.47.25-.43Z"/>
          <path class="st12" d="M156.51,1170.4c0,.13.1.36-.12.44-.02-.17.09-.32.12-.44Z"/>
          <path class="st12" d="M157.62,1183.6s-.3.47-.34.44c0-.09.31-.47.34-.44Z"/>
          <path class="st12" d="M173.25,1172.57c0-.08-.1-.32.08-.38.06.14-.06.28-.08.38Z"/>
          <path class="st12" d="M159.74,1171.61c0-.09-.1-.32.08-.38.06.14-.06.28-.08.38Z"/>
          <path class="st12" d="M153.07,1180.02c-.06.12-.09.35-.26.33,0-.09.22-.36.26-.33Z"/>
          <path class="st12" d="M166.5,1172.14c.02-.17-.01-.18.05-.4-.02.17,0,.2-.05.4Z"/>
          <path class="st12" d="M160.88,1171.62c0-.08-.1-.33.08-.38.06.14-.05.28-.08.38Z"/>
          <path class="st12" d="M158.44,1170.94s.01.36-.11.36c-.03-.06.02-.41.11-.36Z"/>
          <path class="st12" d="M162.55,1171.87s-.13-.24.09-.28c.07.14-.09.25-.09.28Z"/>
          <path class="st12" d="M159.01,1171.12s0,.28-.12.26c-.05,0,.02-.31.12-.26Z"/>
          <path class="st12" d="M159.65,1180.85c.02-.06.08-.27.11-.36-.03.12-.1.31-.11.36Z"/>
          <path class="st12" d="M159.59,1181.16c.02-.1.04-.21.06-.31,0,.01,0,.13-.06.31Z"/>
          <path class="st12" d="M166.55,1171.74s-.06-.28.09-.28c.07.14-.09.24-.09.28Z"/>
          <path class="st12" d="M161.75,1171.42s-.06-.28.09-.28c.07.14-.09.24-.09.28Z"/>
          <path class="st12" d="M156.17,1176.87c.03.11.02.23-.12.26.03-.08,0-.24.12-.26Z"/>
          <path class="st12" d="M156.51,1170.4s-.13-.21.05-.23c.06.1-.05.21-.05.23Z"/>
          <path class="st12" d="M158.7,1171.06s0,.26-.07.21c-.04-.02,0-.26.07-.21Z"/>
          <path class="st12" d="M172.71,1172.59s-.13-.21.05-.23c.06.1-.05.22-.05.23Z"/>
          <path class="st12" d="M165.93,1171.96s-.13-.22.05-.23c.06.1-.05.22-.05.23Z"/>
          <path class="st12" d="M165.04,1171.97s-.13-.21.05-.23c.06.1-.05.21-.05.23Z"/>
          <path class="st12" d="M156.74,1170.85s0,.26-.07.21c-.04-.02,0-.26.07-.21Z"/>
          <path class="st12" d="M160.66,1171.27s0,.26-.07.21c-.04-.02,0-.26.07-.21Z"/>
          <path class="st12" d="M160.29,1171.69s-.13-.21.05-.23c.06.11-.05.2-.05.23Z"/>
          <path class="st12" d="M160.27,1171.94c0-.1,0-.14.02-.25,0,.11.01.09-.02.25Z"/>
          <path class="st12" d="M159.47,1171.49s-.13-.21.05-.23c.06.11-.05.2-.05.23Z"/>
          <path class="st12" d="M157.75,1183.88s-.13.25-.17.22.13-.25.17-.22Z"/>
          <path class="st12" d="M161.22,1171.36s0,.26-.07.21c-.04-.02,0-.26.07-.21Z"/>
          <path class="st12" d="M159.45,1171.74c0-.1,0-.14.02-.25,0,.11.01.09-.02.25Z"/>
          <path class="st12" d="M151.84,1177.64s0,.08-.04.1c-.19.18-.04-.15.04-.1Z"/>
        </g>
        <g>
          <path class="st12" d="M143.13,1184.71c-2.8.91-7.28-.82-9.77-2.01-.19-.27-.12-.61-.08-.91.08-.64.3-1.49.54-2.1l-.47,2.74.53-2.2.14-.12-.4,2.43c.33-.64.27-1.56.53-2.2,0-.02.23-.51.23-.18l-.54,2.55.78-2.62-.57,2.7.93-2.64c.04.23-.87,2.72-.66,2.76l.9-2.44-.64,2.56.99-2.55-.67,2.71.89-2.54c-.16.86-.65,1.67-.64,2.56l.91-2.34c-.08.7-.71,1.5-.68,2.22l.97-2.25c.07-.02.12.02.11.09-.08.6-.99,1.63-1.01,2.35l1.32-2.24-1.24,2.48,1.34-2.05c-.2.56-.98,1.42-1.06,1.96-.02.12-.08.15.12.18.18-.87.85-1.51,1.32-2.24l-1.17,1.88,1.41-1.51-1.21,1.53-.1.41,1.74-2.04c0,.27-1.87,2.06-1.48,2.16.53-.61,1.11-1.45,1.64-2.03,0,0,.23-.14.24-.08l-1.63,2.13,1.91-1.92c-.5.7-1.23,1.23-1.44,2.11l1.83-2.15c-.4.8-1.31,1.31-1.52,2.22.66-.61,1.02-1.55,1.85-1.96l-1.42,1.81,2.07-2.18c.1.17-.09.36-.19.47-.55.62-1.39,1.14-1.81,1.9l2.24-2.01-1.99,2.03c.77-.6,1.45-1.39,2.31-1.82l-2.02,1.78,2.71-1.81-2.49,1.99,2.8-1.87-2.68,2.06,3.36-2.19.11.09c-.05.17-2.58,1.45-2.9,1.89-.07.09-.16.18.02.2l2.99-1.95-2.78,2.07c1.14-.63,2.11-1.57,3.36-1.97-1.03.6-2.04,1.24-3.02,1.92l3.02-1.7-2.42,1.78c.82-.51,1.62-.99,2.49-1.41-.63.41-1.48.85-1.89,1.39,1.22-.81,2.36-1.47,3.71-2.01-1.13.69-2.42,1.21-3.45,2.08,1.25-.36,2.64-1.75,3.82-2.09.03,0,.34-.09.21.07l-3.29,1.98,4.05-2.27-3.36,2.19,3.89-1.95-3.64,2.15Z"/>
          <path class="st12" d="M146.67,1186.08c-.3-.35-.43-.66-.66-.96l.55-.19-.34.44.61-.32-.38.54c1.18-.71.18-1.05-.48-.51-.07-.09-.21-.43-.23-.44-.08-.05-1.59.05-1.86.05l3.65-2.05c.35-.06-.2.26-.22.27-.21.13-2.76,1.42-2.64,1.61l3.58-2.02-3.04,1.95,3.36-1.79-2.45,1.53,2.9-1.49c.07.15-.39.39-.49.46-.21.14-1.83.98-1.75,1.15l3.29-1.93c-1.05.93-2.43,1.57-3.55,2.26,1.28-.28,2.34-1.3,3.49-1.96l-2.82,2.17,3.34-2.38c-.66,1.07-2.19,1.64-3.18,2.46l3.31-2.23-2.89,2.38,2.76-1.87-2.34,2.02,2.66-1.86-2.45,1.93,2.43-1.68c.24.25-.67.39-.66.68.24-.08.53-.34.74-.44.02-.01.37-.18.25.02l-2.5,1.54c.1.23,2.12-1.4,2.47-1.39l.11.09c-.87.29-1.54.91-2.26,1.46.1.17,1.38-.89,1.52-.98l.81-.25c-.59.03-1.83,1.34-2.17,1.4-.16.03-1.86-.8-1.98-.76s-.41.67-.71.68c.24.31.52-.47.8-.39l-.62.67.86-.7c.27-.03-.65.83-.82.82Z"/>
          <path class="st12" d="M153.22,1188.12c-.68.33-2.46.82-3.15.45-.36-.19-.66-.6-1.07-.84l.38-.32c.02.27.13.59.5.44-.42-.52-.46-.9.15-1.26l-.33.54.56-.31-.43.6.69-.48-.51.71.79-.49-.71.73.92-.61-.76.74c.17.36.67-.56,1.02-.62-.07.39-.91.65-.72,1.03l.99-.81-.84.89c.54.08.93-.94,1.2-1.19s1.08-.44,1.39-.81c-.7.76-1.64,1.03-2.19,2.05l2.24-1.16c-.23.55-1.05.47-1.43.92.52.15,1.25-.85,1.67-.55l-.38.37Z"/>
          <path class="st12" d="M132.78,1182.42c-.63-.3-1.23-.72-1.86-1.02.3-.17.41-2.58.67-2.49l-.36,2.38c.37-.78.25-1.87.69-2.52l-.48,2.59.72-2.27-.52,2.3.07.19c.07-.2.16,0,.23-.13.05-.08.22-1.5.34-1.9-.11.73-.3,1.51-.16,2.23.08-.23.34-2.53.55-2.45-.15.89-.44,1.81-.37,2.72.35-.7.14-1.68.57-2.3.12.04-.54,2.02-.23,2.26.26-.81.17-1.75.59-2.5-.04.24-.57,2.68-.37,2.72l.67-2.66-.41,2.83-.37.02Z"/>
          <path class="st12" d="M129.2,1180.67c-.72-.3-1.44-.6-2.18-.83-.1-.58.02-1.27.13-1.85-.02.51-.06,1.16.02,1.66.08-.65.16-1.3.29-1.95-.06.66-.02,1.33-.19,1.98l.19-.07c0-.47.13-.93.21-1.39-.03.53-.13,1.09-.03,1.62l.4-2.03-.15,2.05.41-1.94c0,.64-.42,1.52-.1,2.1l.39-2.13c-.07.73-.33,1.48-.18,2.21.04-.2.3-2.47.51-2.39.02.4-.5,2.12-.41,2.38.03.1.22.18.27.17.19-.04.33-1.94.64-2.16l-.37,2.28.64-2.16-.48,2.46Z"/>
          <path class="st12" d="M125.39,1177.5c-.04.63-.13,1.27-.07,1.89-.49-.12-1.4-.13-1.77-.24-.03,0-.04-.14-.23-.1-.11-.33.07-.66.11-.98,0,.15.05.34.06.49,0,.01-.11.13-.05.23.17-.02.04-.22.05-.23.15-.55.26-1.12.35-1.68-.03.69-.12,1.35-.18,2.03.36-.73.31-1.55.49-2.32.03.81-.21,1.5-.15,2.28l.34-1.73c.15-.17.09.32.09.34-.05.47-.26.94-.28,1.42l.44-1.74c.13-.16.12.16.12.18-.02.46-.34,1.08-.31,1.58.27-.57.36-1.21.5-1.82.03.7-.22,1.22-.29,1.9l.23-.57.1.43c.06-.54-.04-1.12.25-1.62,0,.48-.18,1.03-.17,1.51,0,.04-.05.46.13.28.01-.52.16-1.03.24-1.54Z"/>
          <path class="st12" d="M126.6,1179.69c-.38-.11-.87-.2-1.28-.29.11-.39.19-.83.25-1.22,0,.31-.1.89.11,1.1,0-.5.12-.99.19-1.49-.04.51-.04,1.05-.04,1.57.21-.46.18-.96.3-1.45.02.5-.06.98-.05,1.47.14-.29.2-.72.25-1.05,0,.31-.05.78.05,1.06.1-.54.14-1.07.28-1.6,0,.65-.24,1.32-.07,1.89Z"/>
          <path class="st12" d="M130.82,1181.42c-.19-.09-.38-.19-.58-.28.07-.97.33-1.89.58-2.82.09.95-.57,1.82-.41,2.78.23.09.34-2.18.62-2.26.1.03-.52,1.9-.24,2.16.23-.67.2-1.41.4-2.08.02-.07.11-.38.14-.07l-.51,2.57Z"/>
          <path class="st12" d="M143.77,1184.68c-.17,0-.43.15-.64.03.9-.29,2.31-1.28,3.32-1.74-.83.5-1.79.97-2.58,1.47-.05.03-.27.16-.1.23Z"/>
          <path class="st12" d="M129.67,1180.86c-.11-.05-.26-.16-.37-.2l.49-1.75c-.01.15-.27,1.39.05,1.01-.07.31.11.68-.16.94Z"/>
          <path class="st12" d="M148.31,1187.37c-.11-.07-.28-.15-.43-.25l1.32-.83-1.09.87,1.12-.58-.92.78Z"/>
          <path class="st12" d="M149,1187.73c-.18-.11-.38-.15-.58-.28l.85-.57-.48.55.55-.41-.34.71Z"/>
          <path class="st12" d="M151.91,1184.43c-.55.35-1.48,1.13-2.02,1.38-1.22.58.36-.9.68-.97l.86-.3-1.9,1.17c0,.08.04.1.11.09.39-.08,1.69-1.26,2.27-1.36Z"/>
          <path class="st12" d="M151.76,1184.85c-.52.35-1.06.78-1.61,1.09-.15.09-.24.26-.39.1l1.99-1.18Z"/>
          <path class="st12" d="M152.02,1184.96l-1.98,1.28c.19-.28.75-.65,1.04-.82s.65-.27.94-.46Z"/>
          <path class="st12" d="M152.8,1185.67c.16.17-1.64,1.1-1.85,1.11l1.85-1.11Z"/>
          <path class="st12" d="M152.4,1185.61c-.07.24-.52.41-.73.53-.28.17-.58.39-.88.5.43-.46,1.05-.77,1.61-1.04Z"/>
          <path class="st12" d="M153.55,1186.97c-.39.57-1.08.71-1.67.99-.05-.17.01-.13.12-.21.33-.24,1.19-.39,1.54-.78Z"/>
          <path class="st12" d="M152.08,1185.45c-.05.19-.51.47-.68.58-.09.06-.84.57-.88.5l.72-.58.83-.5Z"/>
          <path class="st12" d="M152.79,1186.01l-1.57.98c.35-.49,1.08-.65,1.57-.98Z"/>
          <path class="st12" d="M129.15,1177.97l-.44,2.14c-.02-.65.16-1.52.44-2.14Z"/>
          <path class="st12" d="M151.96,1185.27c-.1.16-1.6,1.17-1.66,1.09.45-.47,1.09-.79,1.66-1.09Z"/>
          <path class="st12" d="M153.09,1185.98c.21.18-1.46,1.14-1.65,1.19l1.65-1.19Z"/>
          <path class="st12" d="M152.99,1186.44c.05.25-1.3.91-1.34.81l1.34-.81Z"/>
          <path class="st12" d="M123.24,1177.58c-.06.41.03,1.23-.27,1.47l.27-1.47Z"/>
          <path class="st12" d="M153.42,1186.68c.02.28-1.15.97-1.25.79l1.25-.79Z"/>
          <path class="st12" d="M146.45,1182.97c.31-.18.61-.49,1-.54-.21.31-.69.4-1,.54Z"/>
          <path class="st12" d="M123.43,1178.08c0-.42.05-.53.09-.9-.02.38-.05.55-.09.9Z"/>
          <path class="st12" d="M143.1,1183.18c.24-.15.43-.41.76-.46-.15.29-.51.34-.76.46Z"/>
          <path class="st12" d="M127.66,1178.22c.02-.23-.09-.58.13-.78.05.28-.09.53-.13.78Z"/>
          <path class="st12" d="M127.14,1177.98c0-.17-.06-.4.11-.53.08.18-.09.42-.11.53Z"/>
          <path class="st12" d="M123.54,1176.92c0-.07-.15-.39.07-.48.05.14-.06.38-.07.48Z"/>
          <path class="st12" d="M132.29,1179.55c.02-.15-.04-.41.16-.49.02.18-.12.36-.16.49Z"/>
          <path class="st12" d="M127.45,1177.7c.02-.27,0-.19.09-.46-.01.22-.06.29-.09.46Z"/>
          <path class="st12" d="M144.91,1182.56c.07-.03.12-.25.3-.21.01.2-.23.17-.3.21Z"/>
          <path class="st12" d="M125.92,1177.38c0-.06-.1-.33.08-.38.06.14-.06.29-.08.38Z"/>
          <path class="st12" d="M125.87,1177.79c.01-.19.02-.23.05-.4-.02.15-.03.25-.05.4Z"/>
          <path class="st12" d="M125.59,1177.92c.02-.12.04-.28.05-.4-.01.12-.05.32-.05.4Z"/>
          <path class="st12" d="M126.24,1176.92s.06.35-.06.31c-.02,0-.06-.35.06-.31Z"/>
          <path class="st12" d="M125.43,1177s-.13-.22.05-.23c.06.1-.05.22-.05.23Z"/>
          <path class="st12" d="M125.66,1177.27s-.13-.21.05-.23c.06.1-.05.2-.05.23Z"/>
          <path class="st12" d="M126.43,1177.42s-.13-.21.05-.23c.06.1-.05.21-.05.23Z"/>
          <path class="st12" d="M125.41,1177.25c0-.1-.02-.08.02-.25,0,.16,0,.12-.02.25Z"/>
          <path class="st12" d="M126.67,1177.79s-.13-.21.05-.23c.06.1-.05.21-.05.23Z"/>
          <path class="st12" d="M125.64,1177.52c0-.08,0-.16.02-.25,0,.1-.01.15-.02.25Z"/>
          <path class="st12" d="M126.14,1177.9s-.13-.22.05-.23c.06.1-.05.22-.05.23Z"/>
          <path class="st12" d="M124.41,1176.72s-.13-.21.05-.23c.06.1-.05.21-.05.23Z"/>
          <path class="st12" d="M124.9,1177.11s-.13-.22.05-.23c.06.1-.05.22-.05.23Z"/>
          <path class="st12" d="M125.39,1177.5c0-.09.01-.17.02-.25,0,.04,0,.13-.02.25Z"/>
          <path class="st12" d="M123.87,1176.39s-.13-.22.05-.23c.06.1-.05.22-.05.23Z"/>
          <path class="st12" d="M124.14,1176.6s-.13-.22.05-.23c.06.1-.05.22-.05.23Z"/>
          <path class="st12" d="M126.43,1177.42s.13.21-.05.23c-.06-.1.05-.21.05-.23Z"/>
          <path class="st12" d="M126.33,1178.33c0-.12,0-.14.02-.25,0,.11,0,.11-.02.25Z"/>
          <path class="st12" d="M124.41,1176.72s.13.21-.05.23c-.06-.1.05-.21.05-.23Z"/>
          <path class="st12" d="M123.85,1176.64c0-.12-.02-.08.02-.25,0,.16,0,.13-.02.25Z"/>
          <path class="st12" d="M125.57,1178.17c0-.12.01-.17.02-.25,0,.05,0,.12-.02.25Z"/>
          <path class="st12" d="M127.3,1177.05s0,.26-.07.21c-.04-.02,0-.26.07-.21Z"/>
          <path class="st12" d="M123.83,1176.89c0-.1.02-.2.02-.25,0,.05,0,.13-.02.25Z"/>
          <path class="st12" d="M123.52,1177.17c0-.09.02-.19.02-.25,0,.06,0,.15-.02.25Z"/>
          <path class="st12" d="M127.55,1177.24s-.13-.21.05-.23c.06.1-.05.2-.05.23Z"/>
          <path class="st12" d="M129.78,1178.91c0-.09,0-.15.02-.25,0,.04.11.17-.02.25Z"/>
          <path class="st12" d="M124.99,1176.38s0,.26-.07.21c-.04-.02,0-.26.07-.21Z"/>
          <path class="st12" d="M129.8,1178.66s-.13-.21.05-.23c.06.1-.05.2-.05.23Z"/>
          <path class="st12" d="M131.09,1178.43s0,.26-.07.21c-.04-.02,0-.26.07-.21Z"/>
          <path class="st12" d="M132.95,1179.45s0,.26-.07.21c-.04-.02,0-.26.07-.21Z"/>
          <path class="st12" d="M141.59,1181.99s-.13.25-.17.22.13-.25.17-.22Z"/>
          <path class="st12" d="M143.03,1182.59c.06-.04.09-.22.21-.1,0,.09-.18.09-.21.1Z"/>
          <path class="st12" d="M143.65,1182.19s-.13.25-.17.22.13-.25.17-.22Z"/>
          <path class="st12" d="M126.35,1178.08s-.13-.21.05-.23c.06.1-.05.2-.05.23Z"/>
          <path class="st12" d="M129.53,1177.82s0,.08-.04.1c-.19.18-.04-.15.04-.1Z"/>
          <path class="st12" d="M123.48,1178.57s.13.21-.05.23c-.06-.1.05-.22.05-.23Z"/>
        </g>
      </g>
    </g>
    <g>
      <path class="st2" d="M125.75,1169.26c-.87,1.42-1.41,3.17-1.89,4.77-.35,1.19-1.54,5.38-1.57,6.39,0,.21.11.35.23.49-.28.05-3.02-.34-3.48-.43-.37-.07-.77-.21-1.15-.28-.19-.26,1.6-5.46,1.85-6.13.63-1.67,1.52-3.95,2.43-5.45.23-.38.77-.81.94-1.08.36.35,2.52.7,2.71.89.24.24-.28.6-.07.83Z"/>
      <g>
        <path class="st10" d="M121.08,1177.57c.12.13.22.34.4.4.06.14-.14.19,0,.27.04.02.32-.26.43.07-.4-.19-.57.34-.93.29.33.24.59-.08.68.49-.01.03-.08.23-.1.23-.11.02-.18-.19-.28-.09-.12-.14-.04-.22-.05-.22-.37.21-.03.32.18.5,0,.03-.01.13-.03.15l-.35-.23.31.29c-.28.24-.24.09-.47-.19-.02-.02-.07-.36-.04.05-.07.08-.14-.03-.21-.07.13-.2.04-.34-.11-.09-.04-.04-.04-.09-.07-.14,0-.01.2-.21-.11-.09,0,0-.16.11-.11-.09l.06-.13c-.06-.02-.11.09-.11.09-.03-.01-.07.05-.21-.07.16-.23-.06-.13-.07-.14,0,0-.12.09-.05-.04.05-.33-.09-.08-.11-.09-.06-.01-.08.04-.21-.07.34-.24-.05-.13-.07-.14-.01,0-.01.09-.11-.09l.03-.15c.22-.67.54-.67.91-1.28l.13.06c-.59.26-.12.55-.11.98.27-.15.08-.49-.08-.64l.42.2-.25-.42.39.18c.08.06.2.14.27.22Z"/>
        <g>
          <path class="st0" d="M120.81,1177.35l-.39-.18.25.42-.42-.2c.16.15.34.48.08.64-.01-.43-.48-.72.11-.98.28.01.25.2.38.3Z"/>
          <path class="st0" d="M121.91,1178.31c.03.11-.02.13,0,.22-.84-.08-.03.07-.26.55-.09-.57-.35-.25-.68-.49.36.05.53-.48.93-.29Z"/>
          <path class="st0" d="M121.28,1179.23c.05.05.17.11.19.15.08.18-.06.12-.06.13-.21-.18-.55-.29-.18-.5.01,0-.07.08.05.22Z"/>
          <path class="st0" d="M121.48,1177.96c-.17-.06-.28-.27-.4-.4.34-.02.34.27.4.4Z"/>
          <path class="st0" d="M121.38,1179.66s-.03.04-.04.05l-.31-.29.35.23Z"/>
          <path class="st0" d="M120.87,1179.53l-.04.05c-.03-.42.03-.07.04-.05Z"/>
          <path class="st9" d="M119.52,1178.64c-.05-.05-.01-.11-.07-.14.02.01.41-.1.07.14Z"/>
          <path class="st11" d="M120.62,1179.51s-.08-.06-.11-.09c.15-.25.24-.12.11.09Z"/>
          <path class="st0" d="M120.22,1179.11l-.05-.04s.05-.1.11-.09l-.06.13Z"/>
          <path class="st7" d="M120.44,1179.28c-.1.1-.05-.04-.11-.09.31-.13.1.07.11.09Z"/>
          <path class="st9" d="M119.84,1178.81l-.11-.09s.16-.24.11.09Z"/>
          <path class="st9" d="M119.96,1178.99c-.05-.05-.01-.11-.07-.14.01,0,.23-.09.07.14Z"/>
          <path class="st0" d="M119.35,1178.42c-.07-.13,0-.07.03-.15l-.03.15Z"/>
          <path class="st14" d="M121.01,1178.39c-.15.31-.53-.07-.53-.28l.53.28Z"/>
          <path class="st0" d="M120.78,1177.77l.41.55c-.22.03-.47-.34-.41-.55Z"/>
          <polygon class="st0" points="121.02 1177.7 121.27 1178.11 120.94 1177.81 121.02 1177.7"/>
          <path class="st0" d="M119.87,1178.03c.06.01-.02.45-.04.5-.21-.05-.1-.53.04-.5Z"/>
          <path class="st8" d="M120.64,1178.64c.17.12-.15.33-.22.27-.1-.08.11-.35.22-.27Z"/>
          <path class="st9" d="M119.92,1177.63l.25.42c-.07.06-.49-.48-.25-.42Z"/>
          <path class="st0" d="M119.75,1177.85l-.2.37c-.15-.04.04-.39.2-.37Z"/>
          <polygon class="st14" points="120.31 1178.38 120.34 1178.62 120.15 1178.69 120.31 1178.38"/>
          <path class="st8" d="M120.87,1178.91c.17.08.14.26-.03.15,0,0-.05-.17.03-.15Z"/>
          <path class="st0" d="M120.63,1178.98c.17.08.14.26-.03.15,0,0-.05-.17.03-.15Z"/>
        </g>
      </g>
    </g>
  </g>
</svg>